<?xml version="1.0" encoding="utf-8"?>
<!-- Generator: Adobe Illustrator 16.0.4, SVG Export Plug-In . SVG Version: 6.00 Build 0)  -->
<!DOCTYPE svg PUBLIC "-//W3C//DTD SVG 1.1//EN" "http://www.w3.org/Graphics/SVG/1.1/DTD/svg11.dtd">
<svg version="1.1" id="Layer_1" xmlns="http://www.w3.org/2000/svg" xmlns:xlink="http://www.w3.org/1999/xlink" x="0px" y="0px"
	 width="584px" height="220px" viewBox="0 0 584 220" enable-background="new 0 0 584 220" xml:space="preserve">
<g>
	<g>
		<path fill="none" stroke="#FFFFFF" stroke-width="2" stroke-linecap="round" stroke-linejoin="round" d="M556.789,148.65
			c0.03,0.052,1.702-0.998,1.709-0.986c0.204,0.354-4.924,6.339-4.794,6.563c0.077,0.134,13.568-7.968,13.627-7.867
			c0.568,0.985-11.627,10.37-11.257,11.011c0.194,0.337,7.029-5.083,7.473-4.314c0.215,0.371-13.222,10.53-12.811,11.243
			c0.135,0.232,13.164-8.357,13.492-7.789"/>
		<path fill="none" stroke="#FFFFFF" stroke-width="2" stroke-linecap="round" stroke-linejoin="round" d="M515.475,48.824
			c1.594,2.761,51.938-31.592,52.634-30.388c2.052,3.554-40.356,26.393-39.264,28.284c0.935,1.619,38.025-24.601,39.171-22.616
			c1.248,2.162-34.342,20.951-32.945,23.371c0.853,1.477,32.855-21.062,33.762-19.492c0.015,0.026-24.882,16.958-23.536,19.289
			c0.867,1.502,18.206-12.724,19.164-11.064c0.749,1.297-15.148,12.142-14.487,13.288c0.235,0.408,12.489-7.55,12.636-7.295
			c0.195,0.338-2.334,4.579-2.184,4.838c0.022,0.038,8.275-4.886,8.322-4.805"/>
		<path fill="none" stroke="#FFFFFF" stroke-width="2" stroke-linecap="round" stroke-linejoin="round" d="M451.039,46.17
			c2.183,3.779,49.84-31.624,51.074-29.487c0.541,0.938-47.903,28.998-46.266,31.835c2.165,3.75,59.151-34.158,59.154-34.153
			c1.576,2.73-54.062,28.924-51.258,33.781c1.984,3.438,55.869-34.025,56.635-32.698c2.069,3.583-44.953,29.421-44.184,30.754
			c1.383,2.396,49.029-30.625,50.033-28.887c1.848,3.2-45.94,27.458-43.905,30.983c1.025,1.777,55.216-34.877,56.514-32.628
			c1.892,3.276-49.438,29.206-47.689,32.236c0.334,0.578,56.508-33.263,56.784-32.784c1.577,2.732-56.688,34.17-55.257,36.649
			c0.943,1.635,63.355-39.018,64.412-37.188c1.418,2.457-70.709,41.165-68.645,44.741c3.377,5.849,72.614-44.262,73.626-42.508
			c1.939,3.358-78.846,41.303-74.577,48.696c0.733,1.27,33.231-19.648,33.432-19.302c1.779,3.081-31.87,20.294-30.72,22.287
			c0.338,0.586,30.426-18.849,30.981-17.887c0.53,0.92-35.261,21.518-34.131,23.474c1.417,2.455,31.138-18.179,31.225-18.028
			c1.617,2.801-31.686,20.488-31.08,21.537c1.482,2.568,31.763-18.705,31.922-18.43c0.515,0.892-31.438,20.722-30.103,23.034
			c0.1,0.171,29.27-19.498,30.395-17.548c0.992,1.718-36.14,21.443-34.349,24.544c0.649,1.126,36.782-22.166,37.185-21.469
			c0.378,0.655-40.394,23.423-38.619,26.497c0.986,1.708,34.891-21.077,35.294-20.377c1.826,3.164-36.966,21.003-34.984,24.437
			c1.052,1.821,30.078-19.396,30.957-17.873c0.327,0.566-31.03,19.445-29.406,22.258c1.135,1.964,34.092-20.954,34.643-20
			c0.517,0.896-34.86,25.316-34.853,25.329c1.558,2.698,32.026-20.073,32.712-18.886c0.616,1.068-35.992,21.365-34.098,24.646
			c0.301,0.522,35.995-21.168,36.163-20.878c1.27,2.2-33.153,22.243-32.526,23.329c1.401,2.427,29.373-18.88,30.205-17.439
			c1.882,3.259-31.931,20.044-30.845,21.926c0.172,0.298,25.772-15.55,26.063-15.047c0.246,0.426-29.137,20.271-28.236,21.829
			c1.556,2.696,30.951-21.431,32.493-18.76c1.705,2.953-36.693,22.221-34.707,25.661c1.574,2.726,29.645-18.694,30.328-17.51
			c1.481,2.566-32.36,22.897-32.298,23.005c0.971,1.682,35.858-21.508,36.207-20.904c1.935,3.351-37.695,25.704-37.205,26.553
			c0.384,0.665,33.048-19.329,33.155-19.143c1.248,2.161-31.34,20.945-30.668,22.109c0.75,1.3,28.562-17.094,28.823-16.642
			c0.516,0.894-26.979,18.386-26.348,19.48c1.347,2.333,24.928-17.842,26.422-15.254c0.539,0.934-29.28,20.768-29.129,21.03
			c0.753,1.304,28.562-19.953,30.061-17.355c1.315,2.277-29.278,18.019-28.178,19.924c0.789,1.367,29.006-20.521,30.641-17.69
			c0.243,0.423-33.13,23.444-33.056,23.574c0.934,1.616,30.062-21.146,31.703-18.304c1.111,1.924-33.371,19.817-31.438,23.167
			c1.631,2.825,31.416-19.433,31.977-18.461c1.566,2.713-29.249,20.59-28.754,21.448c0.703,1.217,34.512-20.407,34.72-20.046
			c0.062,0.107-33.219,23.31-33.018,23.659c1.031,1.786,30.986-18.815,31.387-18.121c0.039,0.067-30.99,19.795-29.751,21.94
			c0.386,0.668,30.458-21.397,32.109-18.538c0.272,0.474-38.149,22.181-36.307,25.371c1.02,1.766,37.833-23.677,38.627-22.301
			c1.04,1.802-35.769,19.827-33.781,23.27c1.572,2.722,36.101-23.521,37.261-21.513c0.69,1.197-36.819,21.812-35.162,24.684
			c0.555,0.961,35.688-22.808,36.643-21.156c1.502,2.602-33.368,22.598-33.183,22.92c1.598,2.767,38.744-23.541,39.252-22.662
			c0.718,1.243-36.184,22.675-34.554,25.497c0.609,1.057,49.561-30.551,50.399-29.098c1.967,3.406-53.432,30.867-51.455,34.292
			c0.27,0.467,62.374-39.906,64.061-36.984c0.339,0.587-59.942,32.813-57.368,37.272c2.117,3.668,55.211-35.465,56.766-32.773
			c0.64,1.108-51.656,28.665-48.7,33.784c1.296,2.245,41.255-28.61,43.33-25.017c1.464,2.536-39.375,23.513-38.102,25.719
			c1.933,3.349,39.058-23.004,39.254-22.663c0.789,1.365-32.45,23.206-32.152,23.722c0.259,0.447,21.526-14.483,22.416-12.941"/>
		<path fill="none" stroke="#FFFFFF" stroke-width="2" stroke-linecap="round" stroke-linejoin="round" d="M397.971,51.192
			c2.847,4.93,61.391-39.745,63.253-36.519c1.556,2.694-50.04,28.746-47.972,32.329c0.121,0.208,49.273-31.358,50.533-29.175
			c1,1.732-40.841,26.837-40.509,27.413c2.417,4.187,47.311-33.689,50.071-28.908c1.376,2.384-44.793,26.505-42.999,29.613
			c0.33,0.572,47.15-32.33,49.362-28.499c1.887,3.268-54.04,29.256-51.451,33.74c0.873,1.512,57.188-37.702,59.217-34.189
			c1.974,3.418-59.569,32.806-57.358,36.634c0.335,0.581,62.975-43.924,66.251-38.25c2.979,5.16-66.824,37.562-64.486,41.611
			c0.018,0.03,16.938-11.505,17.686-10.211c0.767,1.327-23.363,15.229-22.136,17.355c0.374,0.647,22.898-13.498,23.019-13.29
			c0.307,0.531-22.982,18.379-22.968,18.403c0.585,1.015,19.249-12.302,19.764-11.41c0.11,0.191-18.33,13.883-17.275,15.709
			c0.22,0.38,18.582-11.927,19.101-11.028c1.104,1.912-20.248,14.671-19.859,15.344c0.48,0.833,18.516-12.667,19.371-11.184
			c0.163,0.283-20.174,15.11-20.074,15.283c0.533,0.923,20.677-13.429,21.322-12.311c0.938,1.625-24.003,15.689-22.745,17.867
			c0.017,0.029,19.142-11.232,19.22-11.097c0.35,0.605-24.729,16.744-23.438,18.98c0.226,0.391,27.727-17.15,28.222-16.293
			c0.512,0.888-29.768,18.312-28.429,20.63c0.121,0.21,27.812-16.367,27.946-16.135c1.51,2.615-30.693,22.841-30.532,23.121
			c0.101,0.174,30.539-17.799,30.612-17.674c0.592,1.026-29.671,20.448-29.254,21.168c0.18,0.312,22.466-15.307,23.477-13.555
			c0.796,1.377-26.211,16.162-24.738,18.713c1.182,2.047,26.847-16.261,27.176-15.69c1.592,2.756-32.756,24.236-32.678,24.371
			c0.751,1.3,28.96-17.472,29.285-16.907c0.341,0.589-29.69,21.198-29.477,21.569c0.223,0.386,28.799-19.953,30.238-17.459
			c1.691,2.929-32.014,21.985-31.497,22.88c0.396,0.687,28.753-16.604,28.755-16.602c0.682,1.181-34.156,22.187-33.228,23.794
			c0.004,0.008,35.364-24.165,36.986-21.354c1.477,2.557-38.927,21.127-36.815,24.783c1.966,3.405,35.034-23.736,36.554-21.104
			c0.419,0.726-45.214,27.665-43.718,30.255c0.707,1.225,40.923-28.376,42.979-24.814c0.857,1.484-52.788,29.996-50.905,33.257
			c1.422,2.464,50.837-32.632,52.258-30.171c0.84,1.454-60.165,32.019-56.781,37.88c1.991,3.448,55.224-35.066,56.603-32.68
			c2.03,3.518-61.515,35.145-59.753,38.195c2.494,4.319,53.99-36.795,56.425-32.577c0.664,1.149-55.725,35.04-54.524,37.119
			c1.001,1.733,56.292-34.139,57.001-32.91c0.162,0.28-61.877,35.749-59.998,39.003c0.631,1.094,55.214-32.736,55.586-32.093
			c0.98,1.698-55.749,33.048-53.863,36.314c2.057,3.562,49.575-34.442,52.096-30.077c3.123,5.41-53.947,31.812-52.592,34.16
			c2.258,3.911,50.812-34.642,53.108-30.663c1.507,2.609-52.22,31.102-50.201,34.598c2.27,3.932,46.98-29.353,47.945-27.682
			c0.636,1.102-44.997,26.193-43.476,28.828c0.033,0.056,41.715-28.411,43.589-25.165c0.599,1.037-42.956,26.559-41.698,28.738
			c1.643,2.844,35.348-24.191,36.986-21.354c0.928,1.607-26.802,19-26.114,20.191c0.884,1.529,21.978-14.28,22.666-13.087
			c0.789,1.366-12.228,11.009-11.646,12.015c0.148,0.258,9.001-5.632,9.189-5.306"/>
		<path fill="none" stroke="#FFFFFF" stroke-width="2" stroke-linecap="round" stroke-linejoin="round" d="M392.421,29.124
			c0.02,0.035,10.545-7.021,10.948-6.321c0.92,1.594-16.872,11.845-15.989,13.374c0.552,0.955,26.134-18.435,27.583-15.925
			c0.607,1.052-33.486,21.545-32.771,22.783c2.316,4.012,39.713-26.468,41.246-23.813c0.712,1.234-41.323,27.679-41.102,28.062
			c2.205,3.82,48.469-29.161,48.979-28.278c1.763,3.053-57.498,30.951-54.472,36.193c0.662,1.147,66.417-45.06,69.324-40.024
			c2.113,3.661-73.586,40.42-70.681,45.452c0.321,0.557,73.822-49.79,76.926-44.414c0.35,0.605-80.364,42.17-76.795,48.352
			c0.745,1.291,17.85-10.481,17.925-10.35c1.138,1.97-24.921,17.578-24.552,18.217c0.625,1.083,17.187-11.55,17.892-10.33
			c0.964,1.67-14.704,13-14.645,13.103c0.232,0.402,9.729-6.322,10.034-5.793"/>
	</g>
</g>
<g>
	<g>
		<g>
			<path fill="none" stroke="#FFFFFF" stroke-width="2" stroke-linecap="round" stroke-linejoin="round" d="M86.331,121.5
				c0.056,0.097,0.728-0.435,0.734-0.424l-9.422,10.551c0.535,0.926,13.432-8.976,13.96-8.06
				c0.258,0.446-21.124,16.792-20.993,17.019l31.233-18.032c0.798,1.382-34.45,25.271-34.439,25.289
				c0,0,45.364-27.975,46.136-26.637c0.7,1.213-48.572,29.753-47.312,31.935c0,0,53.662-31.607,53.933-31.138
				c0,0-52.4,35.024-52.364,35.087c0.538,0.931,56.688-32.729,56.688-32.729c1.658,2.872-56.276,37.049-56.276,37.049
				c0.011,0.02,54.011-31.184,54.011-31.184c1.377,2.386-48.317,32.978-48.266,33.066c1.546,2.679,50.082-29.947,50.529-29.173
				c0.481,0.834-47.113,31.93-47.113,31.93s51.48-34.042,53.351-30.802l-56.717,37.896l60.607-34.992
				c1.272,2.204-58.54,37.484-58.54,37.484c0.408,0.707,58.033-34.438,58.437-33.738c1.55,2.685-57.296,34.6-55.68,37.399
				c1.457,2.523,53.69-30.998,53.69-30.998l-46.681,32.643c0.669,1.158,50.317-29.051,50.317-29.051
				c0.352,0.609-36.819,26.186-36.819,26.186s40.388-23.49,40.462-23.361c0,0-36.852,23.227-35.89,24.893
				c0.426,0.737,27.582-17.748,28.371-16.381c0.176,0.306-26.322,18.067-25.955,18.703c0.486,0.842,23.738-13.779,23.771-13.724
				c0,0-17.812,13.009-17.176,14.11c0,0,11.774-7.269,11.978-6.916c0.103,0.179-5.53,6.56-5.313,6.936
				c0.056,0.098,4.91-2.835,4.91-2.835"/>
			<path fill="none" stroke="#FFFFFF" stroke-width="2" stroke-linecap="round" stroke-linejoin="round" d="M139.088,86.215
				c0.056,0.096,0.719-0.43,0.725-0.419l-4.917,7.95c0.543,0.942,13.717-9.163,14.255-8.23c0.213,0.37-16.974,14.449-16.866,14.636
				L164,81.84c0.702,1.215-29.957,22.68-29.947,22.696c0,0,37.074-22.874,37.71-21.772c0.636,1.101-43.891,27.318-42.747,29.299
				c0,0,43.797-25.795,44.018-25.414c0,0-46.984,31.907-46.952,31.962c0.46,0.797,48.677-28.104,48.677-28.104
				c1.495,2.59-50.523,33.728-50.523,33.728c0.01,0.017,48.238-27.851,48.238-27.851c1.221,2.115-42.559,29.666-42.514,29.745
				c1.387,2.402,44.376-26.547,44.777-25.853c0.426,0.737-41.38,28.62-41.38,28.62s45.953-30.408,47.632-27.5l-51.058,34.629
				l54.949-31.725c1.154,1.998-52.925,34.242-52.925,34.242c0.367,0.637,52.455-31.125,52.818-30.494
				c1.402,2.428-51.583,31.658-50.121,34.191c1.23,2.13,45.034-26.001,45.034-26.001l-42.676,30.33
				c0.56,0.97,42.014-24.257,42.014-24.257c0.327,0.566-34.076,24.601-34.076,24.601s34.216-19.902,34.28-19.792
				c0,0-35.332,22.438-34.408,24.038c0.437,0.757,28.53-18.347,29.342-16.94c0.167,0.289-24.904,17.29-24.556,17.894
				c0.502,0.871,24.607-14.283,24.64-14.226c0,0-15.521,11.853-14.958,12.829c0,0,12.106-7.47,12.314-7.109
				c0.072,0.125-2.954,5.219-2.8,5.484c0.055,0.096,4.785-2.763,4.785-2.763"/>
			<path fill="none" stroke="#FFFFFF" stroke-width="2" stroke-linecap="round" stroke-linejoin="round" d="M45.035,76.113
				c0.043,0.074,0.292-0.18,0.297-0.172L36.728,86.02c0.443,0.768,10.624-7.146,11.062-6.387
				c0.221,0.383-17.735,14.878-17.623,15.072l25.868-14.935c0.663,1.148-28.151,21.639-28.142,21.654
				c0,0,36.997-22.826,37.632-21.727c0.591,1.024-40.628,25.621-39.565,27.462c0,0,44.109-25.979,44.332-25.595
				c0,0-43.918,30.141-43.888,30.194c0.46,0.796,48.63-28.077,48.63-28.077c1.459,2.528-49.277,33.008-49.277,33.008
				c0.009,0.016,46.094-26.612,46.094-26.612c1.195,2.07-41.603,29.115-41.558,29.192c1.332,2.307,42.392-25.364,42.777-24.697
				c0.417,0.722-40.46,28.088-40.46,28.088S76.75,93.445,78.366,96.244l-50.334,34.211l53.209-30.721
				c1.135,1.965-52.011,33.715-52.011,33.715c0.355,0.615,50.832-30.16,51.183-29.551c1.39,2.408-51.114,31.417-49.665,33.928
				c1.272,2.204,46.65-26.934,46.65-26.934l-45.562,31.996c0.64,1.108,48.076-27.757,48.076-27.757
				c0.353,0.611-36.923,26.245-36.923,26.245s39.81-23.153,39.883-23.027c0,0-37.46,23.545-36.484,25.236
				c0.446,0.772,29.197-18.768,30.024-17.335c0.193,0.335-29.064,19.567-28.661,20.265c0.505,0.875,24.714-14.345,24.748-14.287
				c0,0-20.07,14.147-19.363,15.372c0,0,12.103-7.467,12.31-7.106c0.122,0.21-7.017,7.326-6.76,7.771
				c0.055,0.096,4.78-2.76,4.78-2.76"/>
			<path fill="none" stroke="#FFFFFF" stroke-width="2" stroke-linecap="round" stroke-linejoin="round" d="M54.652,33.691
				c0.474,0.82,14.627-8.576,14.684-8.478L41.203,46.566c1.288,2.231,36.571-24.059,37.846-21.851
				c0.438,0.759-37.688,26.145-37.466,26.529l44.7-25.808c0.909,1.575-39.644,28.266-39.631,28.287c0,0,47.223-29.119,48.026-27.728
				c0.742,1.285-51.612,31.333-50.277,33.646c0,0,53.882-31.737,54.154-31.266c0,0-54.11,36.009-54.073,36.074
				c0.555,0.961,58.539-33.798,58.539-33.798c1.75,3.032-59.524,38.925-59.524,38.925c0.012,0.021,59.821-34.538,59.821-34.538
				c1.57,2.72-55.478,37.094-55.419,37.195c1.688,2.924,55.145-32.965,55.633-32.119c0.497,0.861-48.71,32.852-48.71,32.852
				s50.827-33.612,52.675-30.412L55.263,77.864l53.644-30.971c1.068,1.85-48.851,31.89-48.851,31.89
				c0.324,0.562,46.652-27.676,46.973-27.12c1.142,1.977-41.519,26.474-40.328,28.537c0.988,1.712,35.81-20.675,35.81-20.675
				l-29.9,22.271c0.096,0.167,6.667-3.849,6.667-3.849"/>
			<path fill="none" stroke="#FFFFFF" stroke-width="2" stroke-linecap="round" stroke-linejoin="round" d="M110.897,33.656
				c0.042,0.072,0.258-0.16,0.263-0.152l-2.242,6.405c0.458,0.793,11.073-7.439,11.526-6.654c0.161,0.279-12.109,11.7-12.027,11.842
				l27.016-15.598c0.552,0.956-22.939,18.633-22.932,18.646c0,0,30.933-19.094,31.468-18.167
				c0.52,0.901-35.504,22.955-34.568,24.576c0,0,36.938-21.755,37.124-21.434c0,0-37.968,26.715-37.941,26.761
				c0.387,0.67,41.061-23.707,41.061-23.707c1.195,2.069-39.932,27.612-39.932,27.612c0.008,0.014,38.969-22.499,38.969-22.499
				c0.927,1.605-31.669,23.404-31.635,23.463c1.127,1.953,35.084-21.008,35.41-20.444c0.32,0.555-30.568,22.378-30.568,22.378
				s36.807-24.394,38.167-22.036l-39.991,28.241l45.354-26.185c0.927,1.605-42.185,28.041-42.185,28.041
				c0.296,0.513,42.839-25.41,43.132-24.902c1.102,1.908-39.952,25.668-38.804,27.657c1.048,1.815,38.091-21.992,38.091-21.992
				l-33.955,25.295c0.467,0.809,34.912-20.156,34.912-20.156c0.25,0.433-25.434,19.611-25.434,19.611s26.718-15.545,26.77-15.456
				c0,0-20.976,14.965-20.405,15.953c0.278,0.482,15.813-10.324,16.33-9.428c0.078,0.134-10.473,9.389-10.311,9.67
				c0.25,0.432,11.302-6.563,11.318-6.535c0,0,1.109,3.31,1.214,3.493c0,0,0.429-0.315,0.458-0.265"/>
			<path fill="none" stroke="#FFFFFF" stroke-width="2" stroke-linecap="round" stroke-linejoin="round" d="M75.328,185.912
				c0.214,0.37,5.987-3.516,6.012-3.472l-13.018,12.626c0.644,1.115,16.777-11.156,17.414-10.054
				c0.169,0.294-12.893,12.145-12.807,12.293l22.91-13.227c0.336,0.582-12.727,12.742-12.722,12.751c0,0,23.851-14.737,24.27-14.013
				c0.34,0.589-22.367,16.12-21.755,17.18c0,0,28.12-16.56,28.261-16.316c0,0-22.721,17.934-22.705,17.963
				c0.28,0.485,29.932-17.281,29.932-17.281c0.78,1.351-25.247,19.134-25.247,19.134c0.005,0.01,25.423-14.678,25.423-14.678
				c0.454,0.785-14,13.243-13.983,13.272c0.617,1.068,16.796-10.108,16.975-9.8c0.097,0.167-7.222,8.898-7.222,8.898
				s13.769-9.247,14.331-8.273l-8.43,10.018l13.588-7.846"/>
			<path fill="none" stroke="#FFFFFF" stroke-width="2" stroke-linecap="round" stroke-linejoin="round" d="M188.197,109.733
				c0.415,0.718,12.67-7.43,12.72-7.344l-16.219,14.474c0.5,0.867,12.384-8.293,12.879-7.436c0.19,0.33-14.841,13.244-14.745,13.41
				l17.171-9.913c0.375,0.65-14.583,13.813-14.578,13.822c0,0,17.062-10.558,17.368-10.027c0.34,0.589-22.345,16.109-21.734,17.168
				c0,0,20.4-12.012,20.501-11.836c0,0-22.661,17.899-22.645,17.928c0.198,0.343,21.396-12.353,21.396-12.353
				c0.758,1.312-24.469,18.685-24.469,18.685c0.004,0.007,19.004-10.972,19.004-10.972c0.52,0.9-16.5,14.681-16.481,14.714
				c0.554,0.959,14.542-8.765,14.701-8.487c0.152,0.263-13.074,12.277-13.074,12.277s14.488-9.719,15.075-8.703l-20.41,16.935
				l18.809-10.859c0.423,0.733-18.23,14.211-18.23,14.211c0.079,0.138,13.462-7.953,13.541-7.817
				c0.422,0.731-13.479,12.02-13.039,12.781c0.127,0.22,2.936-1.695,2.936-1.695"/>
			<path fill="none" stroke="#FFFFFF" stroke-width="2" stroke-linecap="round" stroke-linejoin="round" d="M13.117,97.801
				c0.012,0.021,5.594-3.233,5.595-3.23l-4.17,7.519c0.117,0.202,0.599-0.611,0.714-0.412c0.055,0.094-1.217,5.537-1.189,5.585
				l6.119-3.533c0.125,0.216-1.783,6.432-1.782,6.434c0,0,6.127-3.828,6.253-3.61c0.163,0.281-9.23,9.273-8.938,9.78
				c0,0,9.106-5.358,9.149-5.283c0,0-9.333,10.226-9.325,10.238c0.088,0.152,9.937-5.737,9.937-5.737
				c0.379,0.657-10.908,10.855-10.908,10.855c0.002,0.004,7.593-4.384,7.593-4.384c0.184,0.318-3.283,7.079-3.276,7.091
				c0.267,0.463,4.292-2.656,4.369-2.522c0.053,0.091-1.985,5.875-1.985,5.875s6.842-4.691,7.163-4.135l-11.543,11.815l14.279-8.244
				c0.31,0.535-12.772,11.061-12.772,11.061c0.066,0.115,11.777-6.951,11.843-6.838c0.337,0.585-10.097,10.271-9.745,10.88
				c0.222,0.385,6.577-3.797,6.577-3.797l-4.672,8.389c0.091,0.157,6.293-3.634,6.293-3.634c0.034,0.059,1.533,4.042,1.533,4.042
				s0.358-0.226,0.367-0.211c0,0-2.108,5.1-1.983,5.316c0.042,0.071,1.579-1.089,1.656-0.956c0.02,0.034,0.036,3.599,0.078,3.671
				c0.033,0.058,0.005-0.007,0.007-0.004"/>
			<path fill="none" stroke="#FFFFFF" stroke-width="2" stroke-linecap="round" stroke-linejoin="round" d="M136.149,23.882
				c0.012,0.021,5.602-3.238,5.604-3.235l-1.741,6.116c0.123,0.213,0.797-0.742,0.919-0.531c0.04,0.07,2.17,3.598,2.191,3.633
				l4.944-2.854c0.09,0.155,3.281,3.509,3.282,3.511c0,0,4.577-2.875,4.678-2.701c0.101,0.175-4.399,6.74-4.218,7.055
				c0,0,7.408-4.357,7.442-4.297c0,0-4.541,7.465-4.536,7.473c0.07,0.122,8.09-4.67,8.09-4.67c0.258,0.446-6.42,8.265-6.42,8.265
				c0.001,0.002,5.603-3.235,5.603-3.235c0.107,0.187,1.58,4.278,1.583,4.285c0.206,0.357,2.103-1.352,2.163-1.249
				c0.035,0.061,2.606,3.225,2.606,3.225s4.568-3.197,4.81-2.777l-6.738,9.042l11.65-6.726c0.217,0.376-8.314,8.486-8.314,8.486
				c0.044,0.077,8.782-5.171,8.826-5.095c0.19,0.329-3.862,7.024-3.663,7.368c0.113,0.195,2.394-1.382,2.394-1.382l2.494,4.251
				c0.031,0.053,1.706-0.985,1.706-0.985c0.033,0.058,1.652,3.973,1.652,3.973s5.592-3.23,5.593-3.229"/>
		</g>
	</g>
</g>
<g>
	<g>
		<g>
			<path fill="none" stroke="#FFFFFF" stroke-width="2" stroke-linecap="round" stroke-linejoin="round" d="M279.132,167.011
				l4.967-2.868c0,0-3.93,6.461-3.788,6.707l7.318-4.226c0.011,0.02-10.194,10.971-10.194,10.971
				c0.522,0.903,17.935-10.355,17.935-10.355s-15.75,13.127-15.202,14.077l14.249-8.227c0,0-18.51,14.741-17.936,15.736
				l19.346-11.169c0,0-14.235,11.477-13.803,12.226l8.999-5.195c0.135,0.232-2.66,5.046-2.507,5.312
				c0.004,0.006,0.239-0.5,0.396-0.229"/>
			<path fill="none" stroke="#FFFFFF" stroke-width="2" stroke-linecap="round" stroke-linejoin="round" d="M273.799,46.847
				l25.42-14.676c0.332,0.576-18.678,13.472-18.098,14.477c0,0,24.618-14.719,24.837-14.339l-16.443,14.416
				c0,0,23.494-14.826,24.04-13.88c0.296,0.512-11.075,11.239-11.075,11.239c0.268,0.463,14.937-9.5,15.316-8.843
				c0,0-16.086,11.757-15.519,12.741c0.55,0.953,18.245-10.552,18.253-10.538c0,0-11.452,11.043-11.041,11.756
				c0,0,11.978-8.016,12.454-7.19l-7.478,8.495l13.226-7.636c0.244,0.422-8.118,10.14-8.003,10.338
				c0.448,0.777,9.243-5.337,9.243-5.337c0.336,0.581-9.315,9.031-8.99,9.594c0.475,0.822,13.169-8.112,13.39-7.73
				c0.012,0.021-10.141,9.618-9.978,9.9c0.1,0.172,14.875-9.66,15.339-8.856c0,0-15.451,13.574-15.125,14.138
				c0.371,0.643,13.527-7.81,13.527-7.81c0.303,0.524-9.564,8.718-9.2,9.35c0.214,0.37,9.021-5.208,9.021-5.208
				s-8.505,7.989-8.215,8.491c0.245,0.425,8.987-5.188,8.987-5.188c0.084,0.146-13.12,12.59-13.12,12.59
				c0.321,0.556,16.195-9.35,16.195-9.35c0.323,0.561-24.032,19.136-24.032,19.136c0.689,1.194,24.556-14.177,24.556-14.177
				c0.615,1.066-52.523,32.461-51.609,34.044c1.181,2.046,52.855-30.516,52.855-30.516c0.126,0.218-61.778,37.661-60.383,40.078
				c0,0,55.602-34.63,56.696-32.733l-58.68,39.002c0.434,0.752,56.377-32.682,56.435-32.583c0,0-55.879,36.334-55.493,37.003
				c0.006,0.01,22.605-13.431,22.77-13.146c0.613,1.062-24.152,18.948-24.152,18.948c0.591,1.024,16.852-10.688,17.267-9.969
				c0.651,1.129-21.787,18.001-21.787,18.001l16.716-9.651c0,0-11.529,11.412-11.099,12.156c0.455,0.788,12.178-7.031,12.178-7.031
				l-14.533,13.947c0.122,0.212,13.174-7.606,13.174-7.606c0.159,0.277-10.433,9.409-10.16,9.881
				c0.218,0.378,9.678-5.933,9.827-5.674"/>
			<path fill="none" stroke="#FFFFFF" stroke-width="2" stroke-linecap="round" stroke-linejoin="round" d="M250.285,41.557
				c0.044,0.077,13.025-7.624,13.07-7.546l-20.752,15.52c0.366,0.634,31.067-20.604,32.222-18.603c0,0-35.813,24.979-35.615,25.321
				c0,0,45.062-26.973,45.476-26.255c0.365,0.633-46.469,29.109-45.557,30.69l53.899-31.119
				c2.118,3.669-59.379,38.774-59.379,38.774c1.75,3.031,62.5-37.688,63.194-36.485c0,0-64.944,36.926-62.88,40.501
				c0,0,21.834-13.473,22.209-12.823c0.075,0.129-19.991,15.353-19.991,15.353c0.459,0.796,15.384-9.658,15.72-9.076
				c0.496,0.858-12.731,11.445-12.26,12.263c0.034,0.058,7.364-5.128,7.743-4.471c0.111,0.193-4.671,6.11-4.457,6.481l7.235-4.178"
				/>
		</g>
	</g>
</g>
</svg>
