<?xml version="1.0" encoding="utf-8"?>
<!-- Generator: Adobe Illustrator 16.0.4, SVG Export Plug-In . SVG Version: 6.00 Build 0)  -->
<!DOCTYPE svg PUBLIC "-//W3C//DTD SVG 1.1//EN" "http://www.w3.org/Graphics/SVG/1.1/DTD/svg11.dtd">
<svg version="1.1" id="Layer_1" xmlns="http://www.w3.org/2000/svg" xmlns:xlink="http://www.w3.org/1999/xlink" x="0px" y="0px"
	 width="835.458px" height="319.484px" viewBox="0 0 835.458 319.484" enable-background="new 0 0 835.458 319.484"
	 xml:space="preserve">
<g enable-background="new    ">
	<path fill="#FFFFFF" d="M78.593,35.113c0.866,0.855,1.3,1.878,1.3,3.063c0,1.253-0.434,2.31-1.3,3.166
		c-0.867,0.856-1.935,1.284-3.2,1.284h-33.6v23.7h13.3c1.2,0,2.233,0.43,3.1,1.286c0.866,0.855,1.3,1.878,1.3,3.063
		c0,1.253-0.434,2.31-1.3,3.166c-0.867,0.856-1.9,1.284-3.1,1.284h-13.3v28c0,1.268-0.422,2.334-1.264,3.2
		c-0.844,0.865-1.905,1.3-3.186,1.3c-1.281,0-2.344-0.433-3.186-1.299c-0.844-0.865-1.264-1.93-1.264-3.195v-64.91
		c0-1.197,0.42-2.229,1.264-3.096c0.842-0.865,1.905-1.298,3.186-1.298h38.05C76.658,33.827,77.726,34.257,78.593,35.113z"/>
	<path fill="#FFFFFF" d="M124.192,107.327c-5.067,0-9.834-0.966-14.3-2.9c-4.467-1.933-8.384-4.565-11.75-7.899
		c-3.367-3.333-6.017-7.233-7.95-11.7c-1.934-4.466-2.9-9.266-2.9-14.4c0-5.065,0.966-9.85,2.9-14.35
		c1.933-4.5,4.583-8.416,7.95-11.75c3.366-3.333,7.283-5.966,11.75-7.9c4.465-1.933,9.233-2.899,14.3-2.899
		c5.066,0,9.85,0.967,14.35,2.899c4.5,1.935,8.433,4.567,11.8,7.9c3.366,3.334,6.016,7.25,7.95,11.75c1.933,4.5,2.9,9.284,2.9,14.35
		c0,5.135-0.967,9.935-2.9,14.4c-1.935,4.467-4.584,8.367-7.95,11.7c-3.367,3.334-7.3,5.967-11.8,7.899
		C134.042,106.361,129.258,107.327,124.192,107.327z M124.242,42.327c-3.859,0-7.488,0.734-10.881,2.2
		c-3.394,1.467-6.372,3.484-8.935,6.05c-2.562,2.567-4.575,5.55-6.039,8.95c-1.464,3.399-2.195,7.034-2.195,10.899
		c0,3.867,0.731,7.5,2.195,10.9c1.464,3.399,3.477,6.384,6.039,8.95s5.541,4.584,8.935,6.05c3.394,1.467,7.022,2.2,10.881,2.2
		c3.859,0,7.486-0.733,10.879-2.2c3.394-1.466,6.372-3.483,8.935-6.05s4.575-5.551,6.039-8.95c1.464-3.4,2.197-7.033,2.197-10.9
		c0-3.865-0.733-7.5-2.197-10.899c-1.464-3.4-3.477-6.383-6.039-8.95c-2.562-2.565-5.541-4.583-8.935-6.05
		C131.728,43.062,128.102,42.327,124.242,42.327z M144.492,100.227c-1.4,0-2.535-0.532-3.4-1.6l-41.3-50.2
		c-0.734-0.933-1.05-2.016-0.95-3.25c0.1-1.232,0.616-2.216,1.55-2.95c0.933-0.8,2.016-1.133,3.25-1
		c1.233,0.135,2.25,0.668,3.05,1.601l41.2,50.2c0.8,0.934,1.133,2.017,1,3.25c-0.134,1.234-0.667,2.217-1.6,2.949
		C146.558,99.895,145.625,100.227,144.492,100.227z"/>
	<path fill="#FFFFFF" d="M204.191,107.327c-5.067,0-9.834-0.966-14.3-2.9c-4.467-1.933-8.384-4.565-11.75-7.899
		c-3.367-3.333-6.017-7.233-7.95-11.7c-1.934-4.466-2.9-9.266-2.9-14.4c0-5.065,0.966-9.85,2.9-14.35
		c1.933-4.5,4.583-8.416,7.95-11.75c3.366-3.333,7.283-5.966,11.75-7.9c4.465-1.933,9.233-2.899,14.3-2.899
		c5.066,0,9.85,0.967,14.35,2.899c4.5,1.935,8.433,4.567,11.8,7.9c3.366,3.334,6.016,7.25,7.95,11.75c1.933,4.5,2.9,9.284,2.9,14.35
		c0,5.135-0.967,9.935-2.9,14.4c-1.935,4.467-4.584,8.367-7.95,11.7c-3.367,3.334-7.3,5.967-11.8,7.899
		C214.041,106.361,209.257,107.327,204.191,107.327z M204.241,42.327c-3.859,0-7.488,0.734-10.881,2.2
		c-3.394,1.467-6.372,3.484-8.935,6.05c-2.562,2.567-4.575,5.55-6.039,8.95c-1.464,3.399-2.195,7.034-2.195,10.899
		c0,3.867,0.731,7.5,2.195,10.9c1.464,3.399,3.477,6.384,6.039,8.95s5.541,4.584,8.935,6.05c3.394,1.467,7.022,2.2,10.881,2.2
		c3.859,0,7.486-0.733,10.879-2.2c3.394-1.466,6.372-3.483,8.935-6.05s4.575-5.551,6.039-8.95c1.464-3.4,2.197-7.033,2.197-10.9
		c0-3.865-0.733-7.5-2.197-10.899c-1.464-3.4-3.477-6.383-6.039-8.95c-2.562-2.565-5.541-4.583-8.935-6.05
		C211.727,43.062,208.101,42.327,204.241,42.327z M224.491,100.227c-1.4,0-2.535-0.532-3.4-1.6l-41.3-50.2
		c-0.734-0.933-1.05-2.016-0.95-3.25c0.1-1.232,0.616-2.216,1.55-2.95c0.933-0.8,2.016-1.133,3.25-1
		c1.233,0.135,2.25,0.668,3.05,1.601l41.2,50.2c0.8,0.934,1.133,2.017,1,3.25c-0.134,1.234-0.667,2.217-1.6,2.949
		C226.557,99.895,225.624,100.227,224.491,100.227z"/>
	<path fill="#FFFFFF" d="M306.54,35.077c0.833,0.834,1.25,1.884,1.25,3.149c0,1.2-0.417,2.234-1.25,3.101
		c-0.834,0.867-1.884,1.3-3.15,1.3h-21.5v60c0,1.268-0.422,2.317-1.264,3.15c-0.844,0.834-1.905,1.25-3.186,1.25
		c-1.214,0-2.259-0.416-3.136-1.25c-0.876-0.833-1.314-1.883-1.314-3.15v-60h-21.5c-1.2,0-2.234-0.433-3.1-1.3
		c-0.867-0.866-1.3-1.9-1.3-3.101c0-1.266,0.433-2.315,1.3-3.149c0.866-0.833,1.9-1.25,3.1-1.25h51.9
		C304.655,33.827,305.705,34.244,306.54,35.077z"/>
	<path fill="#FFFFFF" d="M350.188,106.927h-15.2c-1.267,0-2.334-0.428-3.2-1.284c-0.867-0.856-1.3-1.878-1.3-3.065
		c0-1.253,0.433-2.308,1.3-3.164c0.866-0.856,1.933-1.286,3.2-1.286h15.2c1.533,0,2.983-0.3,4.35-0.903
		c1.366-0.603,2.565-1.406,3.6-2.411c1.033-1.004,1.85-2.193,2.45-3.565s0.9-2.862,0.9-4.47c0-1.541-0.3-2.997-0.9-4.369
		s-1.417-2.578-2.45-3.615c-1.035-1.038-2.234-1.858-3.6-2.461c-1.367-0.604-2.817-0.905-4.35-0.905h-3.6
		c-1.267,0-2.334-0.428-3.2-1.284c-0.867-0.856-1.3-1.878-1.3-3.065c0-1.253,0.433-2.308,1.3-3.164
		c0.865-0.856,1.933-1.286,3.2-1.286c1.666,0,3.216-0.317,4.65-0.953c1.433-0.636,2.683-1.489,3.75-2.561
		c1.066-1.072,1.916-2.327,2.55-3.766c0.633-1.439,0.95-2.996,0.95-4.671c0-1.673-0.317-3.247-0.95-4.719
		c-0.634-1.472-1.484-2.743-2.55-3.815c-1.067-1.072-2.317-1.925-3.75-2.561c-1.434-0.637-2.984-0.955-4.65-0.955h-23.5v59.2
		c0,1.267-0.434,2.334-1.3,3.2c-0.867,0.867-1.935,1.3-3.2,1.3c-1.2,0-2.234-0.433-3.1-1.299c-0.867-0.865-1.3-1.93-1.3-3.195
		V38.221c0-1.197,0.433-2.229,1.3-3.096c0.866-0.865,1.9-1.298,3.1-1.298h28c2.866,0,5.566,0.55,8.1,1.648
		c2.533,1.099,4.733,2.579,6.6,4.443c1.866,1.864,3.35,4.078,4.45,6.641c1.1,2.562,1.65,5.276,1.65,8.14
		c0,2.996-0.567,5.776-1.7,8.339c-1.134,2.562-2.7,4.81-4.7,6.74c2.8,1.731,5.066,4.094,6.8,7.089c1.733,2.997,2.6,6.293,2.6,9.888
		c0,2.797-0.535,5.427-1.6,7.89c-1.067,2.464-2.517,4.595-4.35,6.392c-1.834,1.797-3.967,3.229-6.4,4.294
		C355.604,106.396,352.988,106.927,350.188,106.927z"/>
	<path fill="#FFFFFF" d="M443.887,104.377c-0.398,1.1-1.166,1.917-2.299,2.45c-1.135,0.532-2.268,0.6-3.4,0.2
		c-1.135-0.4-1.967-1.166-2.5-2.301l-7.9-17h-20.099c-1.268,0-2.317-0.415-3.15-1.25c-0.834-0.832-1.25-1.883-1.25-3.149
		c0-1.2,0.416-2.233,1.25-3.101c0.833-0.865,1.883-1.3,3.15-1.3h15.9l-14-30l-24.7,55.7c-0.4,0.867-0.967,1.518-1.7,1.95
		c-0.734,0.435-1.534,0.649-2.4,0.649c-0.6,0-1.2-0.1-1.8-0.3c-1.134-0.532-1.917-1.365-2.35-2.5
		c-0.433-1.133-0.383-2.266,0.15-3.399l28.7-64.5c0.333-0.801,0.865-1.434,1.6-1.9c0.732-0.466,1.533-0.7,2.4-0.7
		c0.865,0,1.666,0.218,2.399,0.65c0.733,0.435,1.267,1.05,1.601,1.85l30.2,64.601C444.221,102.161,444.288,103.277,443.887,104.377z
		"/>
	<path fill="#FFFFFF" d="M495.788,107.027h-41.15c-1.254,0-2.309-0.434-3.164-1.301c-0.855-0.865-1.285-1.933-1.285-3.199v-64.3
		c0-1.266,0.43-2.332,1.285-3.199c0.855-0.866,1.91-1.301,3.164-1.301c1.252,0,2.309,0.435,3.164,1.301
		c0.855,0.867,1.285,1.934,1.285,3.199v59.801h36.701c1.266,0,2.332,0.449,3.199,1.35c0.865,0.9,1.301,1.95,1.301,3.15
		c0,1.267-0.436,2.334-1.301,3.199C498.12,106.594,497.053,107.027,495.788,107.027z"/>
	<path fill="#FFFFFF" d="M551.086,107.027h-41.15c-1.254,0-2.309-0.434-3.164-1.301c-0.857-0.865-1.285-1.933-1.285-3.199v-64.3
		c0-1.266,0.428-2.332,1.285-3.199c0.855-0.866,1.91-1.301,3.164-1.301c1.252,0,2.307,0.435,3.164,1.301
		c0.857,0.867,1.287,1.934,1.287,3.199v59.801h36.699c1.266,0,2.332,0.449,3.199,1.35s1.301,1.95,1.301,3.15
		c0,1.267-0.434,2.334-1.301,3.199C553.418,106.594,552.352,107.027,551.086,107.027z"/>
	<path fill="#FFFFFF" d="M606.086,99.377c0.865,0.834,1.299,1.885,1.299,3.15c0,1.199-0.434,2.234-1.299,3.1
		c-0.867,0.867-1.9,1.3-3.1,1.3h-37.75c-1.215,0-2.262-0.433-3.139-1.3c-0.877-0.865-1.312-1.9-1.312-3.1v-64.4
		c0-1.2,0.438-2.232,1.312-3.1c0.877-0.866,1.924-1.301,3.139-1.301h37.75c1.197,0,2.23,0.435,3.1,1.301
		c0.865,0.867,1.299,1.899,1.299,3.1c0,1.268-0.434,2.317-1.299,3.15c-0.867,0.834-1.9,1.25-3.1,1.25h-33.303v23.399h13.102
		c1.201,0,2.23,0.435,3.1,1.3c0.867,0.867,1.301,1.9,1.301,3.101c0,1.201-0.434,2.234-1.301,3.1c-0.867,0.867-1.898,1.3-3.1,1.3
		h-13.102v23.4h33.303C604.186,98.127,605.219,98.544,606.086,99.377z"/>
	<path fill="#FFFFFF" d="M673.186,107.727c-1.936,0-3.65-0.267-5.15-0.8c-1.5-0.532-3.084-1.766-4.75-3.7
		c-0.734-0.8-1.717-2.115-2.949-3.949c-1.234-1.833-2.719-4.016-4.451-6.551c-0.934-1.332-1.783-2.532-2.549-3.6
		c-0.768-1.065-1.318-1.865-1.65-2.4l-0.398-0.6c-0.867-1.133-1.635-1.95-2.301-2.45s-1.768-0.75-3.301-0.75
		c-1.268,0-2.35-0.433-3.25-1.3c-0.898-0.865-1.35-1.933-1.35-3.2c0-1.266,0.449-2.35,1.35-3.25c0.9-0.899,1.982-1.35,3.25-1.35
		c2.135,0,4.15-0.416,6.051-1.25c1.898-0.833,3.551-1.95,4.949-3.351c1.4-1.399,2.518-3.032,3.352-4.899
		c0.832-1.866,1.25-3.866,1.25-6c0-2.133-0.418-4.15-1.25-6.05c-0.834-1.9-1.949-3.551-3.352-4.95
		c-1.398-1.4-3.051-2.516-4.949-3.351c-1.898-0.832-3.916-1.25-6.051-1.25h-21v60.5c0,1.268-0.436,2.335-1.301,3.2
		c-0.867,0.866-1.934,1.3-3.199,1.3c-1.268,0-2.35-0.434-3.25-1.3c-0.898-0.865-1.35-1.933-1.35-3.2v-65.1
		c0-1.266,0.449-2.333,1.35-3.2c0.9-0.865,1.982-1.3,3.25-1.3h25.5c3.4,0,6.602,0.65,9.602,1.95c3,1.3,5.615,3.067,7.85,5.3
		c2.232,2.234,4,4.85,5.301,7.85c1.299,3,1.949,6.2,1.949,9.601c0,4.6-1.15,8.784-3.449,12.55c-2.301,3.768-5.35,6.717-9.15,8.85
		c0.199,0.268,0.434,0.601,0.699,1l0.4,0.5c0.467,0.601,1.1,1.468,1.9,2.601c0.801,1.134,1.666,2.399,2.6,3.8
		c0.6,0.867,1.232,1.8,1.9,2.8c0.666,1,1.314,1.95,1.949,2.851c0.633,0.899,1.199,1.717,1.699,2.449
		c0.5,0.734,0.916,1.268,1.25,1.601c0.602,0.667,1.018,1.05,1.25,1.149c0.232,0.101,0.814,0.15,1.75,0.15
		c1.268,0,2.332,0.45,3.199,1.35c0.865,0.9,1.301,1.984,1.301,3.25c0,1.268-0.436,2.335-1.301,3.2
		C675.518,107.293,674.452,107.727,673.186,107.727z"/>
</g>
<g enable-background="new    ">
	<path fill="#FFFFFF" d="M124.29,192.325c-5.067,0-9.834-0.966-14.3-2.9c-4.467-1.933-8.384-4.565-11.75-7.899
		c-3.367-3.332-6.017-7.232-7.95-11.699c-1.934-4.467-2.9-9.266-2.9-14.4c0-5.065,0.966-9.85,2.9-14.35
		c1.933-4.5,4.583-8.416,7.95-11.75c3.366-3.333,7.283-5.966,11.75-7.9c4.465-1.933,9.233-2.899,14.3-2.899
		c5.066,0,9.85,0.967,14.35,2.899c4.5,1.935,8.433,4.567,11.8,7.9c3.366,3.334,6.016,7.25,7.95,11.75c1.933,4.5,2.9,9.284,2.9,14.35
		c0,5.135-0.967,9.936-2.9,14.4c-1.935,4.467-4.584,8.367-7.95,11.699c-3.367,3.334-7.3,5.968-11.8,7.899
		C134.14,191.359,129.356,192.325,124.29,192.325z M124.34,127.325c-3.859,0-7.488,0.734-10.881,2.2
		c-3.394,1.467-6.372,3.484-8.935,6.05c-2.562,2.567-4.575,5.55-6.039,8.95c-1.464,3.399-2.195,7.034-2.195,10.899
		c0,3.867,0.731,7.5,2.195,10.9c1.464,3.398,3.477,6.384,6.039,8.949c2.562,2.566,5.541,4.584,8.935,6.051s7.022,2.199,10.881,2.199
		c3.859,0,7.486-0.732,10.879-2.199c3.394-1.467,6.372-3.483,8.935-6.051c2.563-2.566,4.575-5.551,6.039-8.949
		c1.464-3.4,2.197-7.033,2.197-10.9c0-3.865-0.733-7.5-2.197-10.899c-1.464-3.4-3.477-6.383-6.039-8.95
		c-2.562-2.565-5.541-4.583-8.935-6.05C131.826,128.06,128.2,127.325,124.34,127.325z M144.59,185.225c-1.4,0-2.535-0.531-3.4-1.6
		l-41.3-50.2c-0.734-0.933-1.05-2.016-0.95-3.25c0.1-1.232,0.616-2.216,1.55-2.95c0.933-0.8,2.016-1.133,3.25-1
		c1.233,0.135,2.25,0.668,3.05,1.601l41.2,50.199c0.8,0.935,1.133,2.018,1,3.25c-0.134,1.234-0.667,2.218-1.6,2.949
		C146.656,184.893,145.723,185.225,144.59,185.225z"/>
	<path fill="#FFFFFF" d="M224.689,192.725c-1.934,0-3.65-0.267-5.15-0.8c-1.5-0.532-3.084-1.766-4.75-3.7
		c-0.734-0.8-1.717-2.115-2.95-3.949c-1.234-1.832-2.717-4.016-4.45-6.551c-0.935-1.332-1.784-2.531-2.55-3.6
		c-0.768-1.064-1.317-1.865-1.65-2.4l-0.4-0.6c-0.867-1.133-1.634-1.95-2.3-2.45c-0.667-0.5-1.767-0.75-3.3-0.75
		c-1.267,0-2.35-0.433-3.25-1.3c-0.9-0.865-1.35-1.934-1.35-3.2c0-1.266,0.45-2.35,1.35-3.25c0.9-0.899,1.983-1.35,3.25-1.35
		c2.133,0,4.15-0.416,6.05-1.25c1.9-0.833,3.55-1.95,4.95-3.351c1.4-1.399,2.516-3.032,3.35-4.899c0.833-1.866,1.25-3.866,1.25-6
		c0-2.133-0.417-4.15-1.25-6.05c-0.834-1.9-1.95-3.551-3.35-4.95c-1.4-1.4-3.05-2.516-4.95-3.351c-1.9-0.832-3.917-1.25-6.05-1.25
		h-21v60.5c0,1.268-0.434,2.334-1.3,3.199c-0.867,0.866-1.935,1.301-3.2,1.301c-1.267,0-2.35-0.435-3.25-1.301
		c-0.9-0.865-1.35-1.933-1.35-3.199v-65.101c0-1.266,0.45-2.333,1.35-3.2c0.9-0.865,1.983-1.3,3.25-1.3h25.5
		c3.4,0,6.6,0.65,9.6,1.95c3,1.3,5.616,3.067,7.85,5.3c2.233,2.234,4,4.85,5.3,7.85c1.3,3,1.95,6.2,1.95,9.601
		c0,4.6-1.15,8.784-3.45,12.55c-2.3,3.768-5.35,6.717-9.15,8.85c0.2,0.269,0.433,0.602,0.7,1l0.4,0.5
		c0.466,0.602,1.1,1.469,1.9,2.602c0.8,1.134,1.666,2.398,2.6,3.8c0.6,0.867,1.233,1.8,1.9,2.8c0.666,1,1.316,1.95,1.95,2.852
		c0.633,0.898,1.2,1.717,1.7,2.449c0.5,0.733,0.916,1.268,1.25,1.601c0.6,0.667,1.016,1.05,1.25,1.149
		c0.233,0.101,0.816,0.149,1.75,0.149c1.266,0,2.333,0.45,3.2,1.351c0.866,0.899,1.3,1.983,1.3,3.25c0,1.268-0.434,2.334-1.3,3.199
		C227.022,192.291,225.955,192.725,224.689,192.725z"/>
</g>
<g enable-background="new    ">
	<path fill="#FFFFFF" d="M102.449,277.325c-1,0-1.884-0.3-2.65-0.9c-0.767-0.6-1.285-1.399-1.55-2.399l-11.4-48.301l-12.5,48.301
		c-0.267,0.935-0.767,1.718-1.5,2.351c-0.734,0.636-1.567,0.95-2.5,0.95c-0.934,0-1.8-0.283-2.6-0.852
		c-0.8-0.564-1.367-1.314-1.7-2.25l-14.9-49.199l-10.4,48.899c-0.267,1.136-0.9,2.034-1.9,2.7s-2.067,0.865-3.2,0.6
		c-1.135-0.266-2.035-0.883-2.7-1.85c-0.666-0.966-0.866-2.016-0.6-3.15l13.9-65.398c0.266-0.934,0.766-1.7,1.5-2.301
		c0.733-0.601,1.6-0.934,2.6-1c0.933-0.065,1.8,0.185,2.6,0.75c0.8,0.566,1.366,1.316,1.7,2.25l15.2,50.601l13-50.5
		c0.266-0.933,0.783-1.683,1.55-2.25c0.766-0.565,1.65-0.851,2.65-0.851h0.1c0.933,0,1.783,0.301,2.55,0.899
		c0.766,0.601,1.283,1.367,1.55,2.3l15.3,65.4c0.333,1.135,0.183,2.186-0.45,3.15c-0.634,0.967-1.55,1.617-2.75,1.949
		C103.215,277.291,102.915,277.325,102.449,277.325z"/>
	<path fill="#FFFFFF" d="M181.948,274.375c-0.4,1.1-1.167,1.917-2.3,2.45c-1.135,0.532-2.268,0.6-3.4,0.2
		c-1.134-0.4-1.967-1.166-2.5-2.301l-7.9-17h-20.1c-1.267,0-2.317-0.416-3.15-1.25c-0.834-0.832-1.25-1.884-1.25-3.149
		c0-1.2,0.416-2.233,1.25-3.101c0.833-0.865,1.883-1.301,3.15-1.301h15.9l-14-30l-24.7,55.7c-0.4,0.867-0.967,1.519-1.7,1.95
		c-0.734,0.435-1.534,0.648-2.4,0.648c-0.6,0-1.2-0.1-1.8-0.3c-1.134-0.532-1.917-1.364-2.35-2.5
		c-0.433-1.133-0.383-2.266,0.15-3.399l28.7-64.5c0.333-0.801,0.866-1.434,1.6-1.899c0.732-0.466,1.533-0.7,2.4-0.7
		c0.866,0,1.666,0.219,2.4,0.65c0.733,0.435,1.266,1.05,1.6,1.85l30.2,64.602C182.281,272.159,182.348,273.275,181.948,274.375z"/>
	<path fill="#FFFFFF" d="M227.599,205.075c0.833,0.834,1.25,1.884,1.25,3.149c0,1.199-0.417,2.233-1.25,3.101
		c-0.834,0.866-1.884,1.3-3.15,1.3h-21.5v60c0,1.268-0.422,2.316-1.264,3.15c-0.844,0.834-1.905,1.25-3.186,1.25
		c-1.214,0-2.259-0.416-3.136-1.25c-0.876-0.834-1.314-1.883-1.314-3.15v-60h-21.5c-1.2,0-2.234-0.434-3.1-1.3
		c-0.867-0.866-1.3-1.9-1.3-3.101c0-1.267,0.433-2.315,1.3-3.149c0.866-0.833,1.9-1.25,3.1-1.25h51.9
		C225.714,203.825,226.764,204.242,227.599,205.075z"/>
	<path fill="#FFFFFF" d="M239.748,203.625c1.2,0,2.25,0.417,3.15,1.25c0.9,0.834,1.35,1.885,1.35,3.15v64.8
		c0,1.2-0.45,2.233-1.35,3.1c-0.9,0.867-1.95,1.3-3.15,1.3c-1.267,0-2.317-0.433-3.15-1.3c-0.834-0.864-1.25-1.899-1.25-3.1v-64.8
		c0-1.267,0.416-2.316,1.25-3.15C237.43,204.042,238.48,203.625,239.748,203.625z M287.348,203.625c1.266,0,2.315,0.417,3.15,1.25
		c0.833,0.834,1.25,1.885,1.25,3.15v64.8c0,1.2-0.417,2.233-1.25,3.1c-0.834,0.867-1.884,1.3-3.15,1.3c-1.2,0-2.25-0.433-3.15-1.3
		c-0.9-0.864-1.35-1.899-1.35-3.1v-28h-28.2c-1.2,0-2.234-0.411-3.1-1.236c-0.867-0.823-1.3-1.86-1.3-3.114
		c0-1.252,0.433-2.308,1.3-3.164c0.866-0.854,1.9-1.285,3.1-1.285h28.2V208.04c0-1.271,0.45-2.323,1.35-3.159
		C285.098,204.044,286.147,203.625,287.348,203.625z"/>
	<path fill="#FFFFFF" d="M344.547,269.375c0.866,0.834,1.3,1.885,1.3,3.15c0,1.199-0.435,2.233-1.3,3.1
		c-0.867,0.867-1.9,1.3-3.1,1.3h-37.75c-1.214,0-2.26-0.433-3.136-1.3c-0.876-0.865-1.314-1.9-1.314-3.1v-64.4
		c0-1.2,0.438-2.232,1.314-3.1c0.876-0.866,1.922-1.301,3.136-1.301h37.75c1.2,0,2.232,0.435,3.1,1.301
		c0.866,0.867,1.3,1.898,1.3,3.1c0,1.268-0.435,2.316-1.3,3.15c-0.867,0.834-1.9,1.25-3.1,1.25h-33.3v23.398h13.1
		c1.2,0,2.233,0.436,3.1,1.301c0.866,0.866,1.3,1.899,1.3,3.101c0,1.2-0.434,2.233-1.3,3.1c-0.867,0.867-1.9,1.3-3.1,1.3h-13.1v23.4
		h33.3C342.647,268.125,343.68,268.542,344.547,269.375z"/>
	<path fill="#FFFFFF" d="M424.346,277.325c-1,0-1.883-0.3-2.648-0.9c-0.768-0.6-1.285-1.399-1.551-2.399l-11.4-48.301l-12.5,48.301
		c-0.267,0.935-0.767,1.718-1.5,2.351c-0.734,0.636-1.567,0.95-2.5,0.95c-0.934,0-1.8-0.283-2.6-0.852
		c-0.8-0.564-1.367-1.314-1.7-2.25l-14.9-49.199l-10.4,48.899c-0.267,1.136-0.9,2.034-1.9,2.7s-2.067,0.865-3.2,0.6
		c-1.135-0.266-2.035-0.883-2.7-1.85c-0.666-0.966-0.866-2.016-0.6-3.15l13.9-65.398c0.266-0.934,0.766-1.7,1.5-2.301
		c0.733-0.601,1.6-0.934,2.6-1c0.933-0.065,1.8,0.185,2.6,0.75c0.8,0.566,1.366,1.316,1.7,2.25l15.2,50.601l13-50.5
		c0.266-0.933,0.783-1.683,1.55-2.25c0.766-0.565,1.65-0.851,2.65-0.851h0.1c0.934,0,1.783,0.301,2.55,0.899
		c0.767,0.601,1.283,1.367,1.55,2.3l15.301,65.4c0.332,1.135,0.182,2.186-0.451,3.15c-0.633,0.967-1.549,1.617-2.75,1.949
		C425.114,277.291,424.813,277.325,424.346,277.325z"/>
	<path fill="#FFFFFF" d="M503.846,274.375c-0.4,1.1-1.168,1.917-2.301,2.45c-1.135,0.532-2.268,0.6-3.398,0.2
		c-1.135-0.4-1.969-1.166-2.5-2.301l-7.9-17h-20.1c-1.268,0-2.318-0.416-3.15-1.25c-0.834-0.832-1.25-1.884-1.25-3.149
		c0-1.2,0.416-2.233,1.25-3.101c0.832-0.865,1.883-1.301,3.15-1.301h15.898l-14-30l-24.699,55.7c-0.4,0.867-0.967,1.519-1.699,1.95
		c-0.734,0.435-1.535,0.648-2.4,0.648c-0.6,0-1.199-0.1-1.801-0.3c-1.133-0.532-1.916-1.364-2.35-2.5
		c-0.434-1.133-0.383-2.266,0.15-3.399l28.699-64.5c0.332-0.801,0.865-1.434,1.6-1.899c0.732-0.466,1.533-0.7,2.4-0.7
		c0.865,0,1.666,0.219,2.398,0.65c0.732,0.435,1.268,1.05,1.602,1.85l30.199,64.602
		C504.178,272.159,504.247,273.275,503.846,274.375z"/>
	<path fill="#FFFFFF" d="M549.497,205.075c0.834,0.834,1.25,1.884,1.25,3.149c0,1.199-0.416,2.233-1.25,3.101
		c-0.834,0.866-1.885,1.3-3.15,1.3h-21.5v60c0,1.268-0.422,2.316-1.264,3.15c-0.844,0.834-1.904,1.25-3.186,1.25
		c-1.215,0-2.26-0.416-3.137-1.25c-0.875-0.834-1.312-1.883-1.312-3.15v-60h-21.5c-1.201,0-2.234-0.434-3.102-1.3
		s-1.301-1.9-1.301-3.101c0-1.267,0.434-2.315,1.301-3.149c0.865-0.833,1.9-1.25,3.102-1.25h51.898
		C547.612,203.825,548.663,204.242,549.497,205.075z"/>
	<path fill="#FFFFFF" d="M561.645,277.525c-1.268,0-2.334-0.435-3.199-1.301c-0.867-0.865-1.301-1.934-1.301-3.199v-65
		c0-1.2,0.434-2.233,1.301-3.102c0.865-0.865,1.932-1.3,3.199-1.3c1.201,0,2.232,0.435,3.1,1.3c0.867,0.867,1.301,1.9,1.301,3.102
		v65c0,1.267-0.434,2.334-1.301,3.199C563.877,277.092,562.846,277.525,561.645,277.525z"/>
	<path fill="#FFFFFF" d="M610.344,277.525c-5.135,0-9.949-0.981-14.449-2.945c-4.5-1.965-8.436-4.627-11.801-7.989
		c-3.367-3.362-6.033-7.291-8-11.784c-1.967-4.494-2.949-9.305-2.949-14.432c0-5.125,0.982-9.936,2.949-14.43s4.633-8.422,8-11.784
		c3.365-3.362,7.301-6.025,11.801-7.989s9.314-2.947,14.449-2.947c6.6,0,12.766,1.616,18.5,4.846c1.133,0.595,1.85,1.468,2.15,2.623
		c0.301,1.156,0.15,2.267-0.449,3.332c-0.602,1.135-1.5,1.851-2.701,2.149c-1.199,0.3-2.334,0.15-3.4-0.45
		c-2.133-1.266-4.383-2.199-6.75-2.8c-2.367-0.6-4.816-0.899-7.35-0.899c-3.934,0-7.617,0.75-11.049,2.25
		c-3.436,1.5-6.418,3.518-8.951,6.051s-4.549,5.533-6.049,9s-2.25,7.134-2.25,11c0,3.935,0.75,7.617,2.25,11.05
		c1.5,3.435,3.516,6.435,6.049,9c2.533,2.567,5.516,4.601,8.951,6.101c3.432,1.5,7.115,2.25,11.049,2.25
		c2.732,0,5.383-0.384,7.951-1.149c2.564-0.767,4.982-1.851,7.25-3.25c1.064-0.733,2.199-0.966,3.398-0.7
		c1.201,0.268,2.133,0.936,2.801,2c0.666,1.066,0.865,2.186,0.6,3.35c-0.268,1.168-0.934,2.117-2,2.852
		C624.209,275.625,617.545,277.525,610.344,277.525z"/>
	<path fill="#FFFFFF" d="M641.743,277.525c-1.268,0-2.334-0.435-3.199-1.301c-0.867-0.865-1.301-1.934-1.301-3.199v-65
		c0-1.2,0.434-2.233,1.301-3.102c0.865-0.865,1.932-1.3,3.199-1.3c1.201,0,2.232,0.435,3.1,1.3c0.867,0.867,1.301,1.9,1.301,3.102
		v65c0,1.267-0.434,2.334-1.301,3.199C643.975,277.092,642.944,277.525,641.743,277.525z"/>
	<path fill="#FFFFFF" d="M720.743,274.375c-0.4,1.1-1.168,1.917-2.301,2.45c-1.135,0.532-2.268,0.6-3.4,0.2
		c-1.133-0.4-1.967-1.166-2.5-2.301l-7.898-17h-20.102c-1.266,0-2.316-0.416-3.148-1.25c-0.836-0.832-1.25-1.884-1.25-3.149
		c0-1.2,0.414-2.233,1.25-3.101c0.832-0.865,1.885-1.301,3.148-1.301h15.9l-14-30l-24.699,55.7c-0.4,0.867-0.967,1.519-1.701,1.95
		c-0.734,0.435-1.533,0.648-2.398,0.648c-0.602,0-1.199-0.1-1.801-0.3c-1.135-0.532-1.918-1.364-2.35-2.5
		c-0.434-1.133-0.383-2.266,0.15-3.399l28.699-64.5c0.332-0.801,0.865-1.434,1.6-1.899c0.732-0.466,1.533-0.7,2.4-0.7
		c0.865,0,1.666,0.219,2.4,0.65c0.73,0.435,1.266,1.05,1.6,1.85l30.199,64.602C721.075,272.159,721.143,273.275,720.743,274.375z"/>
	<path fill="#FFFFFF" d="M780.741,277.325c-1.467,0-2.6-0.565-3.4-1.7l-41.699-54.8v52.2c0,1.199-0.418,2.217-1.25,3.05
		c-0.834,0.834-1.85,1.25-3.051,1.25c-1.133,0-2.133-0.416-3-1.25c-0.867-0.833-1.299-1.851-1.299-3.05v-64.9
		c0-0.934,0.266-1.766,0.799-2.5c0.533-0.732,1.268-1.232,2.201-1.5c0.865-0.333,1.732-0.365,2.6-0.1
		c0.865,0.267,1.602,0.767,2.199,1.5l41.604,54.898v-52.3c0-1.133,0.414-2.133,1.25-3c0.832-0.865,1.85-1.3,3.049-1.3
		c1.201,0,2.217,0.435,3.051,1.3c0.832,0.867,1.25,1.867,1.25,3v64.899c0,0.935-0.268,1.768-0.801,2.5
		c-0.533,0.734-1.234,1.268-2.102,1.601C781.473,277.258,781.006,277.325,780.741,277.325z"/>
</g>
</svg>
