<?xml version="1.0" encoding="utf-8"?>
<!-- Generator: Adobe Illustrator 16.0.4, SVG Export Plug-In . SVG Version: 6.00 Build 0)  -->
<!DOCTYPE svg PUBLIC "-//W3C//DTD SVG 1.1//EN" "http://www.w3.org/Graphics/SVG/1.1/DTD/svg11.dtd">
<svg version="1.1" id="Layer_1" xmlns="http://www.w3.org/2000/svg" xmlns:xlink="http://www.w3.org/1999/xlink" x="0px" y="0px"
	 width="960px" height="560px" viewBox="0 0 960 560" enable-background="new 0 0 960 560" xml:space="preserve">
<rect fill-rule="evenodd" clip-rule="evenodd" width="963.333" height="560"/>
<g>
	<g>
		<path fill="none" stroke="#FFFFFF" stroke-width="2" stroke-linecap="round" stroke-linejoin="round" d="M904.324,340.491
			c0.031,0.054,1.663-1.026,1.691-0.977c0.23,0.398-5.134,7.402-4.912,7.786c0.28,0.485,15.892-9.814,16.169-9.335
			c0.508,0.881-14.33,12.824-13.847,13.661c0.373,0.646,11.484-7.579,11.895-6.867c0.527,0.913-17.232,13.675-16.68,14.632
			c0.401,0.696,17.022-10.817,17.451-10.075c0.682,1.18-20.065,15.454-19.416,16.579c0.54,0.936,18.242-11.674,18.736-10.817"/>
		<path fill="none" stroke="#FFFFFF" stroke-width="2" stroke-linecap="round" stroke-linejoin="round" d="M840.551,182.12
			c2.108,3.651,77.184-49.099,79.148-45.696c2.066,3.579-65.693,40.281-63.78,43.594c1.708,2.958,61.938-39.788,63.683-36.767
			c1.713,2.967-57.197,34.512-55.459,37.523c1.457,2.522,54.805-35.027,56.271-32.488c1.231,2.133-45.518,29.739-44.047,32.286
			c1.18,2.043,38.471-24.981,39.67-22.904c1.092,1.89-34.068,23.271-32.995,25.129c0.79,1.369,30.384-19.305,31.147-17.983
			c0.636,1.102-19.312,14.46-18.697,15.527c0.521,0.902,24.3-15.27,24.837-14.339c0.422,0.731-12.645,12.576-12.215,13.319
			c0.25,0.434,10.062-6.432,10.331-5.965"/>
		<path fill="none" stroke="#FFFFFF" stroke-width="2" stroke-linecap="round" stroke-linejoin="round" d="M736.766,179.081
			c2.396,4.152,77.846-50.134,80.093-46.242c2.062,3.573-75.505,44.711-73.271,48.582c2.393,4.145,86.112-54.454,88.163-50.901
			c2.336,4.045-80.791,46.163-78.27,50.531c2.363,4.093,83.479-53.208,85.648-49.449c2.255,3.905-73.249,43.959-71.201,47.507
			c2.267,3.926,76.848-49.464,79.055-45.642c2.217,3.841-73.177,43.847-70.93,47.739c2.209,3.825,83.282-53.282,85.534-49.383
			c2.23,3.864-74.459,43.745-72.25,47.571c2.094,3.627,81.224-51.709,83.309-48.098c2.123,3.677-73.32,43.373-71.216,47.018
			c2.163,3.748,80.157-51.309,82.336-47.537c2.455,4.253-87.456,50.901-84.921,55.292c2.713,4.7,89.45-57.221,91.864-53.038
			c2.734,4.735-95.9,55.179-92.876,60.416c2.871,4.975,103.671-66.034,106.347-61.399c3.336,5.778-106.834,60.151-103.702,65.577
			c3.004,5.202,110.837-71.129,113.928-65.776c3.275,5.673-120.562,66.506-117.088,72.523
			c3.586,6.211,115.816-73.866,118.848-68.616c3.735,6.471-122.077,67.464-118.714,73.288c1.348,2.335,45.999-29.199,47.144-27.218
			c1.336,2.314-46.756,30.436-45.298,32.96c1.144,1.98,44.352-28.611,45.652-26.357c1.505,2.607-51.343,31.771-49.724,34.576
			c1.239,2.146,51.575-32.55,52.776-30.47c1.528,2.647-56.051,33.734-54.326,36.72c1.3,2.252,49.921-31.615,51.131-29.521
			c1.651,2.862-52.618,31.904-50.943,34.805c1.315,2.279,45.63-29.321,46.919-27.088c1.31,2.27-47,30.089-45.492,32.7
			c1.335,2.312,49.551-31.48,50.794-29.326c1.48,2.564-52.535,33.446-51.128,35.882c1.406,2.436,47.757-30.505,49.026-28.306
			c1.478,2.558-52.2,32.408-50.536,35.291c1.21,2.097,51.351-32.394,52.54-30.334c1.532,2.653-50.471,31.526-49.034,34.014
			c1.386,2.399,45.352-29.177,46.647-26.932c1.583,2.741-48.916,30.138-47.454,32.669c1.192,2.065,41.34-26.664,42.55-24.566
			c1.287,2.229-46.298,30.207-44.909,32.612c1.411,2.444,47.582-30.726,48.991-28.285c1.666,2.886-53.102,33.491-51.394,36.448
			c1.414,2.449,45.562-29.246,46.835-27.041c1.562,2.706-50.362,31.474-49.014,33.811c1.319,2.284,51.54-32.575,52.76-30.461
			c1.759,3.045-55.618,34.759-54.068,37.444c1.226,2.122,48.509-30.736,49.69-28.689c1.49,2.58-48.83,30.512-47.429,32.94
			c1.282,2.221,44.106-28.248,45.312-26.161c1.268,2.195-44.345,28.056-43.059,30.284c1.375,2.381,41.213-27.021,42.61-24.601
			c1.332,2.306-46.832,29.469-45.56,31.672c1.28,2.217,44.58-28.963,45.976-26.545c1.417,2.453-45.794,28.055-44.411,30.45
			c1.284,2.225,44.754-29.102,46.167-26.654c1.38,2.391-50.471,31.653-49.115,34.001c1.304,2.258,45.395-29.466,46.805-27.023
			c1.468,2.542-48.846,30.702-47.257,33.455c1.403,2.43,45.314-29.034,46.559-26.88c1.467,2.54-45.773,29.419-44.47,31.678
			c1.264,2.188,47.817-30.357,49.009-28.295c1.343,2.326-50.025,31.484-48.662,33.846c1.312,2.271,44.23-28.354,45.451-26.241
			c1.26,2.184-46.967,29.706-45.525,32.202c1.223,2.119,44.528-28.955,45.934-26.52c1.461,2.53-53.842,32.759-52.157,35.677
			c1.322,2.289,50.835-32.328,52.125-30.095c1.487,2.577-50.826,30.514-49.201,33.328c1.407,2.437,48.841-31.314,50.19-28.978
			c1.478,2.56-52.137,31.907-50.521,34.706c1.275,2.209,46.972-30.188,48.301-27.887c1.497,2.593-48.478,29.879-47.167,32.148
			c1.416,2.453,47.875-30.593,49.153-28.379c1.43,2.476-49.616,31.757-48.061,34.451c1.29,2.234,50.885-32.413,52.199-30.138
			c1.754,3.039-58.284,35.335-56.528,38.376c1.263,2.187,51.234-32.759,52.611-30.375c1.366,2.367-50.594,30.911-49.032,33.614
			c1.439,2.493,49.806-31.962,51.194-29.557c1.408,2.438-50.146,31.983-48.505,34.826c1.402,2.43,46.646-30.372,48.137-27.792
			c1.465,2.538-48.601,29.606-47.159,32.104c1.539,2.665,51.567-32.771,52.865-30.522c1.611,2.791-55.599,34.88-54.068,37.53
			c1.364,2.363,52.737-34.005,54.276-31.337c1.418,2.455-48.779,31.595-47.432,33.929c1.556,2.695,53.656-34.581,55.216-31.879
			c1.685,2.917-55.505,33.149-53.786,36.127c1.589,2.751,53.615-34.453,55.13-31.829c1.703,2.949-52.82,32.201-51.351,34.746
			c1.614,2.796,53.45-34.551,55.049-31.782c1.48,2.565-52.962,33.918-51.503,36.445c1.758,3.044,58.868-38,60.605-34.991
			c1.566,2.713-56.208,34.495-54.699,37.109c1.775,3.074,68.709-43.785,70.491-40.698c2.068,3.583-73.385,42.311-71.301,45.922
			c2.665,4.615,103.506-66.369,106.368-61.411c3.098,5.364-101.92,58.441-99.098,63.33c2.84,4.919,90.619-58.49,93.292-53.861
			c2.924,5.063-92.679,52.843-90.083,57.338c2.243,3.886,87.128-56.365,89.753-51.818c2.406,4.168-83.418,48.382-80.94,52.673
			c2.167,3.754,76.423-49.324,78.675-45.423c2.201,3.812-70.363,41.253-68.328,44.776c1.894,3.281,63.996-40.697,65.62-37.886
			c1.918,3.323-60.838,37.978-59.199,40.816c1.158,2.006,47.053-30.183,48.359-27.921c0.894,1.548-32.248,22.073-31.235,23.827
			c0.487,0.845,23.941-14.939,24.425-14.102"/>
		<path fill="none" stroke="#FFFFFF" stroke-width="2" stroke-linecap="round" stroke-linejoin="round" d="M655.127,185.963
			c2.714,4.701,92.811-59.492,95.368-55.061c2.271,3.935-77.837,45.295-75.485,49.369c2.086,3.612,77.824-50.166,80.091-46.24
			c1.97,3.413-69.028,40.736-67.168,43.958c2.416,4.186,76.289-49.75,78.759-45.472c2.09,3.619-71.419,42.199-69.263,45.933
			c2.096,3.631,75.331-49.014,77.722-44.873c2.227,3.856-75.397,43.349-73.071,47.377c2.193,3.8,80.475-51.908,82.833-47.824
			c2.399,4.157-82.171,46.496-79.737,50.71c2.299,3.981,87.936-57.024,90.645-52.333c2.784,4.823-91.61,52.198-88.914,56.869
			c2.517,4.359,92.548-60.111,95.439-55.102c2.985,5.17-103.101,57.913-99.921,63.419c2.987,5.175,108.421-69.157,111.262-64.237
			c3.102,5.373-114.248,65.398-111.277,70.544c0.852,1.475,29.857-19.178,30.697-17.723c0.833,1.442-28.958,21.349-27.979,23.044
			c0.787,1.363,28.864-18.59,29.698-17.146c1.016,1.759-31.207,20.953-30.299,22.525c0.823,1.425,28.822-18.676,29.704-17.149
			c0.875,1.517-31.327,20.934-30.461,22.434c0.832,1.441,30.753-19.717,31.603-18.246c1.061,1.838-33.98,22.952-32.874,24.869
			c0.754,1.306,28.46-18.193,29.223-16.872c0.99,1.715-34.161,23.738-33.041,25.679c0.788,1.366,36.868-23.198,37.696-21.764
			c1.118,1.938-39.129,25.126-37.9,27.253c0.783,1.356,36.52-22.896,37.304-21.538c1.304,2.257-40.643,27.503-39.513,29.46
			c0.793,1.373,38.702-24.166,39.49-22.8c1.127,1.951-38.962,25.379-37.857,27.291c0.818,1.418,31.058-20.088,31.992-18.471
			c1.031,1.786-34.088,22.676-32.967,24.618c0.974,1.686,34.471-21.884,35.329-20.397c1.313,2.274-41.02,27.736-39.892,29.691
			c0.935,1.618,35.553-22.558,36.433-21.034c1.048,1.816-37.078,24.727-36.045,26.516c0.897,1.555,35.686-23.024,36.734-21.208
			c1.229,2.129-37.979,25.256-36.888,27.146c0.949,1.644,33.15-21.223,34.053-19.66c1.116,1.934-38.422,25.305-37.277,27.287
			c0.943,1.634,39.802-25.578,40.927-23.63c1.25,2.166-41.054,25.34-39.734,27.624c1.193,2.068,38.253-24.731,39.398-22.747
			c1.263,2.187-45.427,29.226-44.055,31.603c1.108,1.919,42.059-27.156,43.303-25.001c1.432,2.479-51.069,30.967-49.537,33.622
			c1.233,2.135,49.624-31.497,50.856-29.362c1.532,2.654-54.772,33.782-53,36.851c1.354,2.347,51.513-32.738,52.811-30.49
			c1.699,2.943-57.476,34.17-55.803,37.068c1.478,2.559,50.966-32.823,52.438-30.274c1.548,2.681-55.453,35.112-53.852,37.886
			c1.462,2.532,55.017-35.074,56.45-32.592c1.763,3.054-66.613,39.476-64.665,42.852c1.546,2.678,58.807-37.456,60.323-34.827
			c1.932,3.345-68.767,41.355-66.724,44.895c1.896,3.284,63.255-41.036,65.21-37.649c2.386,4.131-75.081,43.354-72.94,47.062
			c2.098,3.633,71.621-46.207,73.725-42.564c2.454,4.25-84.572,49.737-82.036,54.131c2.363,4.093,78.225-50.092,80.359-46.396
			c2.35,4.07-86.111,48.785-83.594,53.146c2.093,3.626,81.843-52.948,84.31-48.676c2.536,4.393-92.793,53.215-90.118,57.848
			c2.569,4.45,83.771-54.294,86.339-49.848c2.488,4.311-84.703,49.592-82.286,53.777c2.462,4.265,78.412-50.812,80.812-46.657
			c2.619,4.537-82.853,48.706-80.353,53.036c2.295,3.975,81.347-52.36,83.683-48.314c2.45,4.243-85.275,50.341-82.867,54.513
			c2.431,4.21,80.513-52.298,83.03-47.938c2.727,4.723-89.592,51.271-86.893,55.946c2.424,4.199,82.297-52.93,84.642-48.868
			c2.304,3.99-81.249,46.593-78.856,50.736c2.034,3.522,75.272-48.449,77.434-44.706c2.107,3.648-75.526,43.952-73.345,47.732
			c2.042,3.536,72.237-46.544,74.332-42.916c2.121,3.673-74.021,43.916-71.892,47.605c1.705,2.953,66.225-42.494,68.069-39.3
			c2.009,3.479-63.638,39.333-61.85,42.43c1.535,2.659,53.187-34.073,54.644-31.549c1.546,2.677-50.718,32.571-49.326,34.982
			c1.295,2.242,48.229-30.77,49.496-28.576c1.458,2.525-45.15,27.868-43.85,30.121c0.896,1.55,38.14-24.056,39.021-22.529
			c0.849,1.471-28.095,19.075-27.299,20.454c0.53,0.919,20.663-13.06,21.152-12.212"/>
		<path fill="none" stroke="#FFFFFF" stroke-width="2" stroke-linecap="round" stroke-linejoin="round" d="M646.766,150.736
			c0.304,0.526,12.816-8.21,13.168-7.602c0.771,1.336-22.979,16.794-22.213,18.122c1.115,1.933,37.579-24.561,38.819-22.413
			c1.329,2.303-46.945,29.017-45.601,31.345c1.787,3.096,55.663-36.012,57.341-33.106c1.674,2.899-59.662,36.227-58.058,39.006
			c2.146,3.718,66.739-42.946,68.65-39.635c2.252,3.9-77.142,44.837-74.718,49.037c2.312,4.003,89.39-57.653,92.007-53.12
			c2.788,4.83-96.832,55.021-93.938,60.034c2.633,4.559,99.896-64.623,102.904-59.412c2.792,4.836-106.571,59.25-103.347,64.836
			c3.395,5.879,109.759-70.188,112.712-65.074c3.698,6.405-123.188,68.595-119.844,74.387
			c3.836,6.645,125.302-81.383,129.216-74.603c4.227,7.32-134.462,75.315-130.946,81.405c0.66,1.143,25.346-16.218,26.032-15.03
			c0.785,1.36-26.576,19.316-25.799,20.662c0.514,0.891,16.316-10.716,16.877-9.744c0.58,1.005-18.018,14.319-17.487,15.238
			c0.265,0.458,15.03-9.362,15.327-8.849"/>
	</g>
</g>
<g>
	<g>
		<g>
			<path fill="none" stroke="#FFFFFF" stroke-width="2" stroke-linecap="round" stroke-linejoin="round" d="M161.056,298.027
				c0.035,0.062,0.53-0.327,0.54-0.312l-6.678,7.812c0.252,0.437,10.927-6.888,11.178-6.454
				c0.154,0.267-16.577,13.073-16.473,13.253l23.654-13.656c0.401,0.695-27.433,19.885-27.344,20.038
				c0,0.001,35.249-21.297,35.659-20.587c0.434,0.751-42.551,26.463-41.872,27.639c0,0,46.77-27.599,47.028-27.151
				c0.014,0.023-52.658,33.7-52.484,34.002c0.451,0.782,58.075-33.801,58.192-33.597c1.116,1.933-63.756,40.212-63.756,40.212
				c0.205,0.355,67.05-38.711,67.05-38.711c1.15,1.993-68.259,42.906-68.022,43.316c1.306,2.262,73.936-43.927,74.473-42.997
				c0.574,0.994-72.23,45.277-72.23,45.277c0.062,0.106,78.413-48.999,80.026-46.203c0,0-81.294,50.455-81.088,50.812l88.22-50.934
				c1.184,2.052-86.886,52.695-86.886,52.695c0.579,1.002,88.181-52.239,88.756-51.243c1.438,2.49-88.22,51.597-86.732,54.174
				c1.411,2.443,86.395-49.88,86.395-49.88c0.122,0.211-84.442,53.289-84.442,53.289c0.833,1.444,86.934-50.356,87.005-50.232
				c0.621,1.076-82.435,51.366-82.435,51.366s84.642-49.623,84.969-49.057c0,0-85.945,49.542-84.605,51.864
				c0.793,1.373,82.793-50.697,84.047-48.525c0.52,0.9-85.424,50-84.609,51.411c1.093,1.893,86.05-50.396,86.36-49.86
				c0,0-86.672,49.211-84.997,52.112c0,0,84.817-50.926,85.665-49.458c0.827,1.433-85.626,48.752-84.155,51.3
				c0.712,1.234,86.941-50.195,86.941-50.195c0.623,1.078-86.436,51.096-85.591,52.558c1.125,1.948,84.75-52.417,86.259-49.802
				c0.693,1.2-83.815,48.688-82.305,51.306c1.372,2.376,85.4-49.548,85.505-49.367l-86.176,53.379l87.903-50.751l-85.839,53.188
				c0.454,0.786,85.168-50.444,85.719-49.49c1.713,2.967-85.434,52.568-85.286,52.824c1.492,2.584,86.298-50.851,86.743-50.081
				c0.322,0.558-86.235,49.138-84.681,51.83c0.955,1.653,84.631-50.953,85.537-49.385c0,0-83.97,48.822-82.621,51.158
				c1.284,2.225,84.71-48.907,84.71-48.907c1.644,2.847-84.37,51.065-84.37,51.065c0.715,1.239,85.231-49.208,85.231-49.208
				c1.61,2.788-80.237,49.345-80.237,49.345c1.134,1.965,81.188-50.593,82.798-47.803c0,0-79.448,48.256-79.215,48.66
				c0.595,1.03,80.602-48.714,81.545-47.079l-74.755,46.707c0.344,0.596,74.245-42.865,74.245-42.865
				c1.234,2.138-73.295,43.012-72.518,44.358c0,0,72.278-44.688,73.56-42.47c1.122,1.943-68.967,42.229-68.445,43.132
				c1.282,2.221,66.903-40.629,67.771-39.127c0,0-60.721,36.91-60.065,38.046l58.285-33.65c0.222,0.385-52.293,33.406-52.058,33.813
				c0.55,0.952,48.499-28.001,48.499-28.001s-45.959,28.58-45.386,29.574l42.486-24.529c0.587,1.016-36.226,24.576-36.103,24.789
				c0,0,30.396-18.108,30.639-17.689c0.049,0.085-24.767,18.278-24.709,18.379c0.379,0.656,22.099-13.331,22.347-12.902
				c0.026,0.045-16.717,12.12-16.717,12.12c0.02,0.034,13.027-7.621,13.07-7.547c0,0-9.394,8.474-9.322,8.598
				c0.1,0.173,7.343-4.353,7.392-4.268c0.002,0.003-2.926,4.269-2.883,4.343c0.034,0.059,0.895-0.57,0.918-0.53"/>
			<path fill="none" stroke="#FFFFFF" stroke-width="2" stroke-linecap="round" stroke-linejoin="round" d="M244.045,242.496
				c0.035,0.06,0.482-0.299,0.491-0.284l-3.256,5.836c0.258,0.447,11.21-7.063,11.466-6.62c0.128,0.222-13.476,11.323-13.389,11.474
				l24.09-13.908c0.355,0.615-24.024,17.94-23.945,18.076c0,0,35.845-21.657,36.261-20.936c0.408,0.707-39.988,25.074-39.349,26.182
				c0,0,47.503-28.032,47.766-27.578c0.013,0.022-49.982,32.175-49.817,32.462c0.438,0.758,56.333-32.788,56.448-32.59
				c1.033,1.789-58.87,37.392-58.87,37.392c0.179,0.31,58.213-33.609,58.213-33.609c0.992,1.719-58.605,37.408-58.401,37.763
				c1.066,1.846,59.717-35.491,60.156-34.731c0.488,0.845-61.163,38.888-61.163,38.888c0.05,0.087,63.492-39.694,64.807-37.417
				c0,0-69.686,43.818-69.508,44.127l72.071-41.61c0.998,1.729-73.063,44.715-73.063,44.715
				c0.477,0.826,72.838-43.149,73.312-42.327c1.249,2.165-76.467,45.259-75.173,47.5c1.225,2.122,74.817-43.196,74.817-43.196
				c0.109,0.188-75.335,48.031-75.335,48.031c0.747,1.294,77.813-45.075,77.878-44.963c0.554,0.959-73.339,46.114-73.339,46.114
				s75.569-44.307,75.862-43.799c0,0-76.709,44.537-75.511,46.613c0.711,1.231,73.831-45.223,74.955-43.275
				c0.464,0.804-76.255,44.904-75.526,46.167c0.98,1.698,77.002-45.098,77.28-44.617c0,0-77.426,44.278-75.927,46.875
				c0,0,75.837-45.54,76.598-44.223c0.739,1.28-76.412,43.792-75.097,46.07c0.639,1.107,77.89-44.969,77.89-44.969
				c0.558,0.966-77.318,46.034-76.562,47.344c1.01,1.749,75.89-46.945,77.245-44.597c0.619,1.071-74.677,43.784-73.327,46.122
				c1.232,2.135,76.446-44.354,76.54-44.19l-77.245,48.222l78.981-45.6l-76.954,48.058c0.408,0.707,76.32-45.208,76.816-44.349
				c1.538,2.664-76.565,47.482-76.432,47.711c1.339,2.319,77.312-45.556,77.71-44.866c0.288,0.499-77.082,44.226-75.689,46.637
				c0.835,1.447,73.771-44.421,74.563-43.049c0,0-72.867,42.817-71.694,44.85c1.086,1.882,71.183-41.097,71.183-41.097
				c1.385,2.398-70.886,43.281-70.886,43.281c0.591,1.023,69.977-40.401,69.977-40.401c1.368,2.37-68.002,42.281-68.002,42.281
				c0.94,1.629,66.945-41.732,68.28-39.421c0,0-68.199,41.837-67.998,42.186c0.497,0.86,67.326-40.69,68.114-39.326l-65.327,41.265
				c0.291,0.503,62.135-35.874,62.135-35.874c1.078,1.867-63.896,37.813-63.217,38.989c0,0,61.286-37.898,62.375-36.012
				c1.008,1.746-61.808,38.217-61.339,39.029c1.129,1.956,58.832-35.732,59.596-34.408c0,0-56.299,34.464-55.69,35.519
				l55.972-32.315c0.221,0.382-51.917,33.193-51.684,33.598c0.571,0.989,50.419-29.109,50.419-29.109s-45.387,28.267-44.82,29.249
				l43.979-25.392c0.565,0.979-34.807,23.768-34.688,23.973c0,0,31.382-18.694,31.632-18.263
				c0.045,0.078-22.728,17.112-22.675,17.203c0.387,0.671,22.562-13.609,22.814-13.172c0.024,0.041-15.366,11.341-15.366,11.341
				c0.02,0.034,13.198-7.721,13.242-7.645c0,0-7.185,7.229-7.127,7.328c0.098,0.17,7.141-4.232,7.188-4.15
				c0.001,0.003-1.051,3.086-1.024,3.132c0.031,0.055,0.734-0.471,0.755-0.436"/>
			<path fill="none" stroke="#FFFFFF" stroke-width="2" stroke-linecap="round" stroke-linejoin="round" d="M95.837,226.406
				c0.026,0.045,0.017-0.025,0.023-0.014l-5.94,7.386c0.209,0.362,8.623-5.456,8.83-5.098c0.131,0.227-13.861,11.541-13.772,11.694
				l19.429-11.217c0.338,0.586-22.789,17.235-22.713,17.365c0,0,28.957-17.503,29.297-16.915c0.367,0.635-35.754,22.78-35.18,23.775
				c0,0,38.711-22.844,38.925-22.473c0.012,0.02-44.11,28.828-43.963,29.083c0.375,0.648,48.066-27.976,48.164-27.807
				c0.94,1.628-53.447,34.261-53.447,34.261c0.17,0.295,55.35-31.956,55.35-31.956c0.943,1.633-55.61,35.702-55.416,36.038
				c1.067,1.848,59.773-35.524,60.212-34.764c0.47,0.813-58.798,37.522-58.798,37.522c0.05,0.087,63.826-39.901,65.147-37.613
				c0,0-67.307,42.46-67.135,42.757l72.74-41.997c0.984,1.704-71.994,44.097-71.994,44.097c0.483,0.836,73.69-43.654,74.17-42.822
				c1.216,2.106-74.357,44.122-73.098,46.301c1.208,2.093,73.737-42.572,73.737-42.572c0.106,0.184-72.839,46.589-72.839,46.589
				c0.715,1.239,74.406-43.1,74.468-42.994c0.535,0.927-70.775,44.634-70.775,44.634s72.259-42.367,72.54-41.88
				c0,0-74.035,43.087-72.877,45.092c0.682,1.182,70.637-43.272,71.715-41.404c0.449,0.777-73.576,43.417-72.872,44.636
				c0.94,1.629,73.845-43.25,74.111-42.789c0,0-74.905,42.934-73.454,45.448c0,0,72.784-43.709,73.515-42.444
				c0.715,1.239-73.908,42.444-72.635,44.649c0.615,1.064,74.881-43.233,74.881-43.233c0.542,0.938-74.996,44.745-74.262,46.016
				c0.972,1.685,73.003-45.162,74.308-42.901c0.602,1.042-72.548,42.643-71.236,44.915c1.188,2.057,73.599-42.702,73.69-42.545
				l-75.205,47.044l76.219-44.005l-75.004,46.932c0.394,0.683,73.691-43.651,74.17-42.822c1.502,2.601-74.719,46.423-74.59,46.648
				c1.299,2.249,74.958-44.17,75.345-43.5c0.282,0.488-75.343,43.295-73.982,45.652c0.833,1.441,73.473-44.243,74.263-42.875
				c0,0-73.351,43.079-72.17,45.125c1.122,1.943,73.584-42.483,73.584-42.483c1.441,2.496-73.817,44.974-73.817,44.974
				c0.625,1.083,74.222-42.852,74.222-42.852c1.465,2.538-72.926,45.123-72.926,45.123c1.029,1.782,73.428-45.766,74.888-43.236
				c0,0-75.488,45.997-75.266,46.382c0.562,0.973,76.124-46.008,77.015-44.465l-73.651,46.07
				c0.336,0.582,72.444-41.826,72.444-41.826c1.216,2.106-72.182,42.397-71.417,43.724c0,0,70.714-43.724,71.968-41.551
				c1.113,1.927-68.388,41.902-67.87,42.8c1.289,2.231,67.278-40.857,68.15-39.347c0,0-62.062,37.65-61.392,38.811l61.323-35.404
				c0.239,0.414-56.404,35.739-56.151,36.178c0.574,0.995,50.784-29.32,50.784-29.32s-49.238,30.382-48.625,31.444l44.18-25.507
				c0.63,1.092-39.065,26.194-38.933,26.424c0,0,31.448-18.734,31.698-18.302c0.053,0.092-27.018,19.567-26.956,19.675
				c0.387,0.67,22.553-13.604,22.806-13.167c0.028,0.048-17.888,12.797-17.888,12.797c0.02,0.034,13.159-7.698,13.203-7.622
				c0,0-10.461,9.072-10.382,9.209c0.097,0.168,7.136-4.231,7.184-4.148c0.002,0.005-3.709,4.542-3.66,4.627
				c0.033,0.057,0.837-0.535,0.859-0.496"/>
			<path fill="none" stroke="#FFFFFF" stroke-width="2" stroke-linecap="round" stroke-linejoin="round" d="M113.257,158.198
				c0.36,0.624,18.632-10.975,18.726-10.812l-37.061,25.353c1.04,1.801,52.32-32.587,53.351-30.802
				c0.495,0.857-57.567,36.207-57.232,36.787l62.881-36.304c0.848,1.469-60.329,38.647-60.141,38.973
				c0,0.001,65.12-39.311,65.862-38.025c0.682,1.181-67.903,40.2-66.834,42.051c0,0,69.482-40.998,69.864-40.336
				c0.018,0.031-69.885,43.518-69.655,43.916c0.566,0.98,72.944-42.456,73.092-42.2c1.281,2.219-73.436,45.801-73.436,45.801
				c0.228,0.396,74.641-43.094,74.641-43.094c1.222,2.117-72.624,45.393-72.372,45.829c1.338,2.317,75.847-45.062,76.397-44.108
				c0.597,1.035-75.251,47.021-75.251,47.021c0.062,0.107,79.282-49.541,80.913-46.715c0,0-83.412,51.665-83.2,52.032l88.018-50.817
				c1.192,2.064-87.46,53.027-87.46,53.027c0.581,1.006,88.56-52.464,89.137-51.463c1.464,2.535-89.887,52.495-88.371,55.12
				c1.474,2.552,90.333-52.154,90.333-52.154c0.13,0.225-89.772,56.367-89.772,56.367c0.908,1.573,94.807-54.917,94.885-54.782
				c0.688,1.191-91.471,56.583-91.471,56.583s94.096-55.163,94.458-54.536c0,0-96.522,55.273-95.02,57.877
				c0.874,1.513,91.629-56.092,93.01-53.7c0.578,1.001-95.129,55.392-94.223,56.961c1.196,2.073,94.403-55.286,94.742-54.699
				c0,0-93.024,52.599-91.228,55.71c0,0,89.541-53.758,90.434-52.212c0.854,1.479-88.432,50.261-86.913,52.892
				c0.724,1.254,88.396-51.035,88.396-51.035c0.616,1.067-85.551,50.605-84.715,52.053c1.094,1.896,82.403-50.969,83.873-48.424
				c0.65,1.126-78.529,45.851-77.112,48.307c1.263,2.187,78.394-45.483,78.49-45.316l-76.474,47.777l76.458-44.143l-71.705,45.027
				c0.372,0.644,69.387-41.104,69.838-40.321c1.348,2.334-66.878,41.927-66.761,42.129c1.148,1.988,66.15-38.982,66.493-38.39
				c0.238,0.412-63.412,36.895-62.262,38.886c0.695,1.205,61.043-36.768,61.703-35.625c0,0-57.163,34.321-56.236,35.925
				c0.874,1.514,56.661-32.713,56.661-32.713c1.071,1.854-54.593,33.875-54.593,33.875c0.463,0.803,54.321-31.362,54.321-31.362
				c1.015,1.758-50.076,31.932-50.076,31.932c0.701,1.215,49.466-30.86,50.462-29.135c0,0-47.951,30.282-47.808,30.529
				c0.057,0.099,7.824-4.726,7.914-4.569"/>
			<path fill="none" stroke="#FFFFFF" stroke-width="2" stroke-linecap="round" stroke-linejoin="round" d="M197.517,160.7
				c0.023,0.041,3.047-1.773,3.053-1.763l-2.219,5.237c0.214,0.371,8.903-5.63,9.116-5.263c0.096,0.166-9.482,9.068-9.417,9.18
				l20.074-11.59c0.276,0.478-18.159,14.594-18.098,14.7c0,0,30.095-18.189,30.448-17.579c0.335,0.581-32.57,21.054-32.044,21.965
				c0,0,40.406-23.844,40.629-23.458c0.011,0.019-41.229,27.187-41.092,27.425c0.366,0.634,47.043-27.381,47.139-27.215
				c0.849,1.47-48.103,31.175-48.103,31.175c0.151,0.261,48.671-28.1,48.671-28.1c0.807,1.398-47.31,30.975-47.144,31.263
				c0.896,1.552,49.656-29.521,50.025-28.882c0.397,0.688-49.537,32.174-49.537,32.174c0.042,0.073,53.07-33.194,54.176-31.278
				c0,0-57.347,36.766-57.2,37.021l60.879-35.148c0.833,1.443-60.79,37.629-60.79,37.629c0.401,0.695,61.374-36.356,61.773-35.665
				c1.031,1.786-62.754,37.865-61.687,39.713c1.028,1.782,62.52-36.096,62.52-36.096c0.087,0.15-59.437,38.853-59.437,38.853
				c0.609,1.055,63.244-36.635,63.296-36.544c0.438,0.758-57.569,37.01-57.569,37.01s60.951-35.741,61.189-35.328
				c0,0-60.856,35.946-59.901,37.601c0.579,1.002,59.307-36.354,60.222-34.769c0.371,0.642-60.585,36.198-60.004,37.205
				c0.797,1.38,62.277-36.477,62.502-36.085c0,0-61.417,35.739-60.223,37.809c0,0,61.152-36.732,61.77-35.663
				c0.587,1.018-60.488,35.221-59.442,37.032c0.519,0.898,63.006-36.376,63.006-36.376c0.444,0.77-61.311,37.147-60.708,38.192
				c0.818,1.417,61.181-37.86,62.279-35.957c0.486,0.841-58.244,34.966-57.184,36.802c0.997,1.727,61.391-35.62,61.467-35.488
				l-61.045,38.869l63.806-36.838l-60.65,38.645c0.329,0.57,61.165-36.237,61.564-35.544c1.216,2.106-60.171,38.082-60.066,38.263
				c1.081,1.873,62.222-36.667,62.544-36.11c0.228,0.395-60.712,35.447-59.61,37.355c0.692,1.199,60.705-36.564,61.361-35.427
				c0,0-58.365,34.972-57.42,36.608c0.925,1.603,60.169-34.739,60.169-34.739c1.158,2.006-59.138,36.499-59.138,36.499
				c0.503,0.872,59.25-34.208,59.25-34.208c1.138,1.971-56.331,35.543-56.331,35.543c0.794,1.375,56.261-35.087,57.389-33.133
				c0,0-56.36,35.081-56.193,35.37c0.416,0.719,56.323-34.04,56.982-32.898l-53.085,34.197c0.239,0.415,50.708-29.276,50.708-29.276
				c0.874,1.513-51.562,30.99-51.012,31.943c0,0,49.853-30.837,50.742-29.296c0.804,1.393-48.951,31.012-48.577,31.661
				c0.908,1.572,47.05-28.583,47.664-27.519c0,0-38.909,24.847-38.483,25.585l39.551-22.835c0.13,0.225-29.806,20.649-29.668,20.887
				c0.344,0.596,29.336-16.937,29.336-16.937s-23.262,16.108-22.962,16.627l22.957-13.254c0.229,0.396-12.81,11.231-12.762,11.314
				c0,0,10.585-6.332,10.681-6.167c0.007,0.013-0.79,4.548-0.782,4.562c0.038,0.065,1.909-1.158,1.933-1.116"/>
			<path fill="none" stroke="#FFFFFF" stroke-width="2" stroke-linecap="round" stroke-linejoin="round" d="M146.407,398.128
				c0.135,0.233,6.089-3.597,6.125-3.536l-22.57,16.986c0.548,0.949,26.456-16.527,26.999-15.587
				c0.214,0.371-23.857,17.183-23.712,17.434l30.789-17.776c0.362,0.628-24.55,18.239-24.469,18.379
				c0,0,32.288-19.512,32.665-18.859c0.321,0.556-31.113,20.265-30.609,21.137c0,0,35.471-20.934,35.667-20.593
				c0.008,0.015-32.218,22.049-32.109,22.238c0.294,0.509,37.637-21.907,37.713-21.774c0.622,1.076-34.804,23.497-34.804,23.497
				c0.119,0.206,38.004-21.941,38.004-21.941c0.555,0.961-31.906,22.202-31.792,22.399c0.697,1.207,37.843-22.512,38.13-22.014
				c0.271,0.469-33.248,22.77-33.248,22.77c0.032,0.056,40.097-25.104,40.943-23.639c0,0-39.048,26.307-38.946,26.482l46.04-26.581
				c0.589,1.021-42.625,27.142-42.625,27.142c0.296,0.513,45.448-26.921,45.743-26.41c0.683,1.184-40.912,26.086-40.205,27.311
				c0.741,1.283,44.495-25.689,44.495-25.689c0.057,0.099-38.372,26.69-38.372,26.69c0.421,0.729,43.281-25.071,43.317-25.009
				c0.271,0.469-34.857,23.897-34.857,23.897s37.697-22.116,37.849-21.853c0,0-34.822,21.838-34.266,22.801
				c0.344,0.596,33.587-20.647,34.13-19.706c0.199,0.346-31.964,20.296-31.652,20.837c0.441,0.764,33.646-19.714,33.771-19.498
				c0,0-29.27,18.59-28.686,19.602c0,0,29.562-17.785,29.873-17.247c0.25,0.435-25.064,16.153-24.618,16.926
				c0.235,0.406,27.891-16.103,27.891-16.103c0.167,0.29-22.112,15.384-21.884,15.777c0.319,0.554,22.786-14.146,23.214-13.402
				c0.123,0.213-13.263,10.823-12.994,11.288c0.305,0.529,17.069-9.908,17.092-9.868l-10.728,9.817l13.456-7.769l-2.408,5.019
				c0.029,0.051,3.434-2.064,3.469-2.003"/>
			<path fill="none" stroke="#FFFFFF" stroke-width="2" stroke-linecap="round" stroke-linejoin="round" d="M322.806,278.899
				c0.365,0.633,18.942-11.157,19.038-10.992l-22.596,17.002c0.437,0.756,20.588-12.885,21.021-12.136
				c0.203,0.352-22.542,16.44-22.405,16.678l23.836-13.762c0.343,0.594-23.127,17.429-23.051,17.56
				c0,0.001,24.348-14.723,24.636-14.223c0.288,0.498-27.647,18.386-27.197,19.167c0,0,26.682-15.748,26.831-15.49
				c0.007,0.013-28.415,19.882-28.318,20.049c0.219,0.38,27.958-16.273,28.015-16.175c0.539,0.933-29.917,20.676-29.917,20.676
				c0.087,0.151,27.574-15.92,27.574-15.92c0.479,0.829-27.257,19.553-27.159,19.724c0.509,0.881,26.652-15.87,26.861-15.508
				c0.226,0.391-27.352,19.366-27.352,19.366c0.023,0.04,28.376-17.793,28.986-16.735c0,0-33.191,22.958-33.104,23.108
				l33.411-19.289c0.473,0.819-34.013,22.168-34.013,22.168c0.211,0.366,32.445-19.215,32.654-18.853
				c0.579,1.003-34.364,22.556-33.765,23.593c0.522,0.904,30.807-17.786,30.807-17.786c0.049,0.085-32.324,23.198-32.324,23.198
				c0.311,0.539,31.685-18.354,31.711-18.309c0.235,0.408-30.087,21.145-30.087,21.145s29.792-17.484,29.915-17.271
				c0,0-32.135,20.381-31.62,21.272c0.295,0.511,28.207-17.362,28.673-16.555c0.191,0.331-30.625,19.553-30.326,20.07
				c0.394,0.683,29.917-17.529,30.029-17.337c0,0-30.42,19.204-29.815,20.253c0,0,27.553-16.58,27.844-16.076
				c0.277,0.48-27.853,17.655-27.359,18.51c0.233,0.404,27.732-16.012,27.732-16.012c0.208,0.36-27.855,18.573-27.574,19.062
				c0.345,0.597,24.727-15.344,25.189-14.543c0.202,0.351-23.112,16.114-22.672,16.876c0.382,0.662,21.949-12.738,21.978-12.688
				l-24.035,17.501l21.726-12.543l-21.121,15.822c0.097,0.169,16.46-9.775,16.578-9.571c0.381,0.661-17.633,13.688-17.601,13.745
				c0.261,0.453,14.15-8.349,14.228-8.214c0.056,0.097-13.671,10.213-13.402,10.678c0.132,0.229,9.771-5.933,9.897-5.714
				c0,0-8.709,8.103-8.543,8.39c0.116,0.201,4.878-2.816,4.878-2.816c0.132,0.229-5.614,5.597-5.614,5.597
				c0.037,0.064,2.061-1.189,2.061-1.189"/>
			<path fill="none" stroke="#FFFFFF" stroke-width="2" stroke-linecap="round" stroke-linejoin="round" d="M49.169,258.468
				c0.007,0.013,2.134-1.236,2.136-1.233l-1.725,4.952c0.057,0.099,0.638-0.499,0.695-0.401c0.033,0.058-1.199,4.384-1.177,4.422
				l4.375-2.526c0.073,0.126-2.463,5.636-2.447,5.664c0,0,6.418-3.912,6.508-3.757c0.099,0.171-8.213,7.848-8.059,8.117
				c0,0,9.188-5.428,9.241-5.335c0.003,0.005-9.62,9.169-9.583,9.233c0.085,0.148,10.588-6.164,10.61-6.126
				c0.224,0.388-11.389,9.979-11.389,9.979c0.036,0.062,10.086-5.823,10.086-5.823c0.173,0.299-8.314,8.763-8.279,8.824
				c0.211,0.365,9.028-5.414,9.115-5.263c0.079,0.137-8.32,8.378-8.32,8.378c0.01,0.017,10.885-6.884,11.145-6.435
				c0,0-13.761,11.851-13.722,11.919l15.369-8.873c0.218,0.377-14.975,11.178-14.975,11.178c0.092,0.16,14.552-8.614,14.644-8.455
				c0.261,0.452-14.275,11.717-14.005,12.185c0.232,0.402,12.709-7.338,12.709-7.338c0.021,0.035-12.156,11.555-12.156,11.555
				c0.141,0.243,13.665-7.918,13.677-7.896c0.089,0.155-10.161,9.639-10.161,9.639s11.78-6.93,11.835-6.833
				c0,0-12.53,9.754-12.315,10.127c0.137,0.236,10.864-6.771,11.08-6.397c0.083,0.143-12.453,9.454-12.323,9.678
				c0.188,0.327,13.446-7.888,13.5-7.794c0,0-13.099,9.96-12.821,10.44c0,0,12.66-7.647,12.807-7.394
				c0.128,0.223-12.136,9.192-11.907,9.587c0.123,0.214,14.084-8.131,14.084-8.131c0.107,0.186-13.586,10.649-13.441,10.901
				c0.194,0.337,13.145-8.19,13.405-7.739c0.1,0.174-10.389,9.28-10.17,9.658c0.234,0.406,12.504-7.26,12.522-7.229l-13.816,11.602
				l14.731-8.505l-13.292,11.302c0.075,0.131,12.267-7.293,12.358-7.135c0.281,0.486-12.451,10.717-12.427,10.759
				c0.241,0.418,13.008-7.676,13.08-7.552c0.048,0.084-11.613,9.108-11.381,9.51c0.151,0.262,11.434-6.932,11.577-6.684
				c0,0-9.263,8.401-9.088,8.704c0.197,0.342,10.401-6.005,10.401-6.005c0.222,0.383-10.35,8.33-10.35,8.33
				c0.108,0.187,10.683-6.168,10.683-6.168c0.206,0.357-8.884,8.15-8.884,8.15c0.166,0.287,10.211-6.439,10.447-6.032
				c0,0-10.371,8.836-10.336,8.895c0.083,0.143,11.234-6.787,11.365-6.562l-8.784,8.619c0.044,0.077,6.776-3.912,6.776-3.912
				c0.155,0.268-8.043,6.91-7.946,7.079c0,0,7.808-4.867,7.963-4.598c0.144,0.248-7.023,7.516-6.957,7.632
				c0.142,0.245,6.365-3.897,6.461-3.73c0,0-2.633,4.77-2.583,4.857l4.031-2.327c0.019,0.032-2.062,4.902-2.042,4.937
				c0.051,0.089,2.087-1.205,2.087-1.205s-2.699,4.794-2.64,4.896l2.974-1.718c0.072,0.126-1.946,5.035-1.931,5.062
				c0,0,3.191-1.868,3.202-1.85c0.007,0.012-1.936,3.808-1.928,3.821c0.004,0.008,1.987-1.154,1.99-1.149"/>
			<path fill="none" stroke="#FFFFFF" stroke-width="2" stroke-linecap="round" stroke-linejoin="round" d="M243.181,141.902
				c0.007,0.013,2.145-1.243,2.146-1.239l0.196,3.843c0.061,0.105,0.843-0.625,0.903-0.521c0.026,0.045,0.308,3.525,0.326,3.555
				l4.758-2.747c0.05,0.086,0.044,4.2,0.055,4.219c0,0,5.6-3.418,5.68-3.28c0.067,0.116-4.746,5.964-4.642,6.145
				c0,0,7.556-4.465,7.6-4.388c0.001,0.003-5.254,6.679-5.23,6.72c0.069,0.119,8.442-4.916,8.46-4.884
				c0.148,0.256-6.804,7.331-6.804,7.331c0.028,0.049,7.771-4.486,7.771-4.486c0.095,0.164-3.147,5.816-3.127,5.85
				c0.17,0.294,6.565-3.952,6.635-3.831c0.043,0.076-3.392,5.533-3.392,5.533c0.008,0.014,8.357-5.308,8.566-4.946
				c0,0-8.544,8.868-8.518,8.915l12.586-7.267c0.159,0.275-10.555,8.625-10.555,8.625c0.074,0.127,11.684-6.915,11.757-6.788
				c0.176,0.304-8.787,8.752-8.605,9.067c0.185,0.321,9.753-5.631,9.753-5.631c0.013,0.022-6.55,8.318-6.55,8.318
				c0.111,0.192,10.529-6.101,10.539-6.084c0.053,0.091-4.927,6.618-4.927,6.618s8.609-5.072,8.653-4.996
				c0,0-7.598,7.078-7.457,7.322c0.107,0.185,7.592-4.773,7.761-4.48c0.054,0.094-7.693,6.808-7.609,6.955
				c0.146,0.253,9.989-5.862,10.03-5.791c0,0-7.979,7.226-7.797,7.541c0,0,9.147-5.541,9.26-5.346
				c0.081,0.141-7.119,6.488-6.974,6.739c0.094,0.163,10.47-6.045,10.47-6.045c0.071,0.123-8.317,7.723-8.221,7.889
				c0.145,0.251,9.373-5.86,9.567-5.523c0.056,0.097-4.672,6.201-4.549,6.413c0.172,0.298,8.543-4.963,8.556-4.94l-8.232,8.376
				l10.616-6.129l-7.425,7.916c0.052,0.09,7.87-4.69,7.934-4.581c0.157,0.273-5.98,7.005-5.967,7.029
				c0.155,0.268,7.956-4.701,8.002-4.62c0.023,0.04-4.683,5.381-4.57,5.577c0.088,0.153,5.736-3.505,5.82-3.36
				c0,0-1.366,4.104-1.305,4.21c0.102,0.176,3.858-2.228,3.858-2.228c0.076,0.132-2.514,3.807-2.514,3.807
				c0.05,0.087,3.653-2.109,3.653-2.109c0.055,0.096-0.335,3.214-0.335,3.214c0.068,0.119,3.071-1.997,3.168-1.829
				c0,0-1.596,3.824-1.586,3.842c0.03,0.052,4.131-2.495,4.179-2.413l-0.879,4.055c0.012,0.021,1.034-0.597,1.034-0.597
				c0.035,0.061,0.061,2.404,0.083,2.443c0,0,0.631-0.434,0.662-0.382c0.043,0.076,1.919,2.459,1.939,2.495
				c0.005,0.008,1.99-1.156,1.994-1.151"/>
		</g>
	</g>
</g>
<g>
	<g>
		<g>
			<path fill="none" stroke="#FFFFFF" stroke-width="2" stroke-linecap="round" stroke-linejoin="round" d="M464.707,370.288
				l9.953-5.746c0.014,0.024-9.914,8.73-9.759,8.999l13.368-7.718c0.062,0.108-16.865,13.667-16.865,13.667
				c0.389,0.673,25.611-14.786,25.611-14.786s-23.329,16.571-22.877,17.354c0,0,23.935-13.881,23.961-13.835
				c0,0-29.605,20.115-29.083,21.02l32.531-18.782c0.017,0.029-30.431,19.483-29.917,20.374l26.017-15.021
				c0.429,0.742-25.458,16.981-24.979,17.811c0.084,0.146,24.603-15.398,25.12-14.503c0.2,0.346-23.919,16.598-23.919,16.598
				c0.089,0.154,23.122-13.35,23.122-13.35s-26.274,17.914-25.841,18.663c0.426,0.738,25.43-14.692,25.435-14.685
				c0,0-22.607,17.104-22.583,17.147c0.155,0.268,23.675-14.501,24.035-13.877c0.09,0.156-19.064,14.251-18.676,14.924
				c0,0,18.987-11.431,19.19-11.079c0.172,0.298-19.415,13.993-19.415,13.993s17.127-10.328,17.318-9.999
				c0.124,0.215-9.436,8.646-9.299,8.883c0.159,0.274,11.868-7.211,12.023-6.942"/>
			<path fill="none" stroke="#FFFFFF" stroke-width="2" stroke-linecap="round" stroke-linejoin="round" d="M451.54,183.198
				c0.034,0.059,48.998-28.305,49.005-28.293c0.483,0.838-42.769,25.832-42.018,27.133c0,0,47.226-28.008,47.548-27.452
				c0.012,0.021-39.357,26.49-39.357,26.49s45.393-27.657,46.021-26.57c0.472,0.818-32.821,22.567-32.79,22.62
				c0.366,0.634,36.027-21.897,36.502-21.075c0,0-37.297,22.485-36.571,23.742c0.642,1.112,38.562-22.511,38.669-22.326
				c0,0-30.751,20.673-30.185,21.654c0,0,31.084-19.247,31.647-18.271l-26.122,18.104c0,0,31.727-18.483,31.798-18.359
				c0.371,0.643-25.224,18.627-25.008,19.001c0.525,0.909,26.834-15.493,26.834-15.493c0.474,0.82-25.832,17.098-25.37,17.896
				c0.54,0.937,29.925-17.955,30.219-17.447c0.091,0.159-25.939,17.363-25.681,17.812c0.173,0.299,31.067-19.141,31.589-18.238
				c0,0-29.239,20.279-28.87,20.918c0.41,0.709,28.419-16.558,28.484-16.445c0.38,0.658-22.541,14.872-22.097,15.641
				c0.255,0.442,22.918-13.232,22.918-13.232s-20.193,13.424-19.834,14.045c0.266,0.461,21.622-12.484,21.622-12.484
				c0.128,0.221-21.051,16.015-21.051,16.015c0.29,0.503,26.225-15.228,26.263-15.163c0.196,0.341-19.927,15.611-19.927,15.611
				c0.352,0.609,23.003-13.281,23.003-13.281c0.189,0.328-20.705,14.469-20.454,14.902c0.312,0.542,24.186-13.964,24.186-13.964
				c0.104,0.179-24.997,17.635-24.625,18.279c0,0,24.925-15.04,25.206-14.553c0,0-22.586,16.966-22.568,16.997
				c0.153,0.265,27.187-15.873,27.264-15.74c0.048,0.083-23.217,16.856-23.062,17.125c0.067,0.115,24.124-14.25,24.264-14.008
				c0.363,0.629-23.383,17.348-23.383,17.348c0.416,0.72,23.959-14.551,24.271-14.012c0.469,0.812-26.947,19.825-26.947,19.825
				c0.013,0.021,25.62-14.91,25.672-14.821c0,0-19.208,14.808-18.829,15.463c0.384,0.665,22.03-12.869,22.096-12.757l-25.656,19.215
				c0.168,0.291,25.795-14.893,25.795-14.893c0.254,0.44-26.098,17.054-25.72,17.708c0.304,0.526,25.763-15.403,25.992-15.006
				c0,0-25.836,16.537-25.35,17.379c0.397,0.688,24.98-15.142,25.292-14.602c0,0-21.35,14.559-20.898,15.34
				c0,0,25.026-14.752,25.157-14.525c0,0-26.887,18.737-26.528,19.358l27.519-15.888c0.267,0.461-31.591,21.058-31.2,21.735
				c0,0,28.471-17.463,28.915-16.693c0.03,0.053-38.271,25.917-38.065,26.271c0.106,0.185,37.699-23.528,38.462-22.206
				c0,0-87.046,49.952-85.396,52.811c0,0,81.97-47.586,82.083-47.391c1.33,2.305-85.666,51.427-84.91,52.736
				c0,0,84.073-50.834,85.066-49.113c1.611,2.791-90.191,55.829-90.191,55.829s87.337-54.279,89.007-51.388
				c1.439,2.495-95.928,56.109-94.639,58.341l93.075-53.737c0.43,0.744-89.435,55.351-89.169,55.81
				c0.072,0.125,89.066-51.422,89.066-51.422s-96.37,57.404-95.588,58.76c0.764,1.322,92.64-57.104,94.206-54.39
				c0.429,0.742-95.093,55.229-93.92,57.261c0,0,84-51.848,85.451-49.335c0,0-84.922,49.513-83.543,51.9
				c0.89,1.541,73.916-42.675,73.916-42.675l-75.146,45.845l41.188-23.779c0,0-42.512,26.365-41.897,27.431
				c0,0,34.443-20.756,34.82-20.104c0.234,0.405-36.28,24.603-35.971,25.137c0.272,0.472,31.274-18.692,31.549-18.215
				c0,0-33.015,21.536-32.982,21.593l34.268-19.785c0.672,1.164-32.986,21.988-32.554,22.736c0.435,0.753,29.5-17.031,29.5-17.031
				s-31.719,21.542-31.205,22.432c0.127,0.22,27.311-15.984,27.404-15.822c0.289,0.5-26.471,17.677-26.263,18.036
				c0.518,0.896,28.951-16.715,28.951-16.715s-32.909,20.772-32.482,21.512c0.298,0.516,28.588-16.796,28.714-16.578
				c0.274,0.476-28.098,20.225-28.098,20.225c0.122,0.21,27.143-15.671,27.143-15.671c0.496,0.858-24.337,16.785-23.911,17.524
				c0,0,26.939-15.785,27.04-15.611c0,0-22.055,16.819-22.016,16.887c0.334,0.578,23.986-14.493,24.266-14.01
				c0.175,0.304-19.759,15.31-19.67,15.463c0.366,0.634,17.062-10.111,17.175-9.916l-16.563,13.254
				c0.175,0.303,16.562-9.741,16.639-9.606"/>
			<path fill="none" stroke="#FFFFFF" stroke-width="2" stroke-linecap="round" stroke-linejoin="round" d="M420.275,171.66
				c0.078,0.135,20.846-12.216,20.924-12.081l-28.523,18.852c0.303,0.525,37.635-23.412,38.364-22.149
				c0,0-44.66,28.804-44.407,29.243c0,0,54.172-32.172,54.56-31.5c0.389,0.673-57.029,34.494-56.308,35.743l64.467-37.22
				c1.475,2.554-71.775,44.776-71.775,44.776c1.211,2.098,75.059-44.747,75.67-43.688c0,0-78.544,44.981-77.068,47.538
				c0,0,87.461-52.867,88.487-51.088c0.413,0.714-88.384,53.686-88.384,53.686c1.546,2.677,90.622-55.089,91.82-53.013
				c1.831,3.17-94.388,54.469-92.632,57.511c0.41,0.709,93.314-57.945,95.077-54.893c1.089,1.886-99.088,55.727-97.254,58.903
				l105.605-60.971c0.844,1.461-106.585,61.246-104.653,64.592c0.285,0.494,47.746-27.566,47.746-27.566
				c0.563,0.977-47.396,31.139-47.142,31.578c0.105,0.183,31.86-18.395,31.86-18.395s-36.009,22.752-35.567,23.518
				c0,0,31.052-18.617,31.351-18.101c0.111,0.192-25.476,18.694-25.476,18.694c0.233,0.404,26.409-15.524,26.529-15.316
				l-26.518,19.906c0.136,0.236,23.208-13.749,23.359-13.486c0.31,0.536-22.3,16.999-22.3,16.999
				c0.011,0.02,25.801-14.896,25.801-14.896c0.116,0.202-15.495,12.653-15.218,13.133c0,0,12.667-7.594,12.789-7.384"/>
		</g>
	</g>
</g>
</svg>
