<?xml version="1.0" encoding="utf-8"?>
<!-- Generator: Adobe Illustrator 16.0.4, SVG Export Plug-In . SVG Version: 6.00 Build 0)  -->
<!DOCTYPE svg PUBLIC "-//W3C//DTD SVG 1.1//EN" "http://www.w3.org/Graphics/SVG/1.1/DTD/svg11.dtd">
<svg version="1.1" id="Layer_1" xmlns="http://www.w3.org/2000/svg" xmlns:xlink="http://www.w3.org/1999/xlink" x="0px" y="0px"
	 width="960px" height="560px" viewBox="0 0 960 560" enable-background="new 0 0 960 560" xml:space="preserve">
<g>
	<g>
		<path d="M179.555,145.423c1.062,1.05,1.594,2.303,1.594,3.757c0,1.537-0.533,2.832-1.594,3.882
			c-1.063,1.05-2.372,1.575-3.924,1.575h-41.204v29.064h16.31c1.472,0,2.738,0.527,3.802,1.577c1.062,1.05,1.594,2.303,1.594,3.757
			c0,1.537-0.533,2.832-1.594,3.882c-1.063,1.05-2.33,1.575-3.802,1.575h-16.31v34.337c0,1.554-0.518,2.863-1.55,3.924
			c-1.035,1.062-2.335,1.594-3.907,1.594c-1.572,0-2.874-0.531-3.907-1.592c-1.035-1.062-1.55-2.367-1.55-3.918v-79.604
			c0-1.468,0.515-2.734,1.55-3.796c1.033-1.062,2.336-1.592,3.907-1.592h46.661C177.183,143.846,178.491,144.373,179.555,145.423z"
			/>
		<path d="M235.474,233.98c-6.214,0-12.06-1.184-17.536-3.556c-5.478-2.37-10.282-5.599-14.409-9.688
			c-4.129-4.087-7.379-8.87-9.75-14.348c-2.372-5.477-3.556-11.363-3.556-17.659c0-6.212,1.184-12.079,3.556-17.598
			c2.371-5.519,5.62-10.32,9.75-14.409c4.127-4.087,8.931-7.316,14.409-9.688c5.476-2.37,11.322-3.556,17.536-3.556
			c6.212,0,12.08,1.186,17.598,3.556c5.519,2.372,10.341,5.601,14.471,9.688c4.127,4.089,7.377,8.891,9.749,14.409
			c2.371,5.519,3.557,11.386,3.557,17.598c0,6.296-1.186,12.183-3.557,17.659c-2.372,5.478-5.622,10.261-9.749,14.348
			c-4.129,4.089-8.952,7.318-14.471,9.688C247.553,232.796,241.686,233.98,235.474,233.98z M235.535,154.27
			c-4.733,0-9.182,0.9-13.344,2.698c-4.162,1.799-7.814,4.273-10.957,7.419c-3.143,3.148-5.61,6.806-7.406,10.976
			c-1.796,4.17-2.692,8.626-2.692,13.367c0,4.742,0.897,9.197,2.692,13.367c1.795,4.17,4.263,7.83,7.406,10.976
			c3.143,3.148,6.794,5.622,10.957,7.419c4.162,1.799,8.611,2.698,13.344,2.698c4.733,0,9.18-0.898,13.342-2.698
			c4.162-1.797,7.814-4.271,10.957-7.419c3.143-3.146,5.61-6.806,7.406-10.976c1.796-4.17,2.694-8.625,2.694-13.367
			c0-4.74-0.898-9.197-2.694-13.367c-1.796-4.17-4.263-7.828-7.406-10.976c-3.143-3.146-6.794-5.62-10.957-7.419
			C244.715,155.17,240.268,154.27,235.535,154.27z M260.368,225.273c-1.717,0-3.108-0.653-4.169-1.962l-50.647-61.561
			c-0.901-1.144-1.288-2.472-1.165-3.985c0.123-1.512,0.755-2.717,1.901-3.618c1.144-0.981,2.472-1.389,3.985-1.227
			c1.512,0.165,2.759,0.818,3.74,1.962l50.524,61.561c0.981,1.146,1.389,2.474,1.226,3.985c-0.165,1.514-0.818,2.719-1.962,3.618
			C262.901,224.865,261.757,225.273,260.368,225.273z"/>
		<path d="M333.578,233.98c-6.214,0-12.06-1.184-17.536-3.556c-5.478-2.37-10.282-5.599-14.409-9.688
			c-4.129-4.087-7.379-8.87-9.75-14.348c-2.372-5.477-3.556-11.363-3.556-17.659c0-6.212,1.184-12.079,3.556-17.598
			c2.371-5.519,5.62-10.32,9.75-14.409c4.127-4.087,8.931-7.316,14.409-9.688c5.476-2.37,11.322-3.556,17.536-3.556
			c6.212,0,12.08,1.186,17.598,3.556c5.519,2.372,10.341,5.601,14.471,9.688c4.127,4.089,7.377,8.891,9.749,14.409
			c2.371,5.519,3.557,11.386,3.557,17.598c0,6.296-1.186,12.183-3.557,17.659c-2.372,5.478-5.622,10.261-9.749,14.348
			c-4.129,4.089-8.952,7.318-14.471,9.688C345.657,232.796,339.79,233.98,333.578,233.98z M333.639,154.27
			c-4.733,0-9.182,0.9-13.344,2.698c-4.162,1.799-7.814,4.273-10.957,7.419c-3.143,3.148-5.61,6.806-7.406,10.976
			c-1.796,4.17-2.692,8.626-2.692,13.367c0,4.742,0.897,9.197,2.692,13.367c1.795,4.17,4.263,7.83,7.406,10.976
			c3.143,3.148,6.794,5.622,10.957,7.419c4.162,1.799,8.611,2.698,13.344,2.698s9.18-0.898,13.342-2.698
			c4.162-1.797,7.814-4.271,10.957-7.419c3.143-3.146,5.61-6.806,7.406-10.976c1.796-4.17,2.694-8.625,2.694-13.367
			c0-4.74-0.898-9.197-2.694-13.367c-1.796-4.17-4.263-7.828-7.406-10.976c-3.143-3.146-6.794-5.62-10.957-7.419
			C342.819,155.17,338.372,154.27,333.639,154.27z M358.472,225.273c-1.717,0-3.108-0.653-4.169-1.962l-50.647-61.561
			c-0.901-1.144-1.288-2.472-1.165-3.985c0.123-1.512,0.755-2.717,1.901-3.618c1.144-0.981,2.472-1.389,3.985-1.227
			c1.512,0.165,2.759,0.818,3.74,1.962l50.524,61.561c0.981,1.146,1.389,2.474,1.226,3.985c-0.165,1.514-0.818,2.719-1.962,3.618
			C361.005,224.865,359.861,225.273,358.472,225.273z"/>
		<path d="M459.09,145.379c1.021,1.023,1.533,2.311,1.533,3.863c0,1.472-0.512,2.74-1.533,3.801
			c-1.022,1.063-2.311,1.594-3.863,1.594h-26.365v73.579c0,1.554-0.519,2.842-1.551,3.863c-1.034,1.023-2.335,1.533-3.906,1.533
			c-1.489,0-2.771-0.51-3.847-1.533c-1.074-1.021-1.61-2.309-1.61-3.863v-73.579h-26.366c-1.472,0-2.74-0.531-3.801-1.594
			c-1.063-1.062-1.594-2.33-1.594-3.801c0-1.552,0.531-2.84,1.594-3.863c1.062-1.021,2.33-1.533,3.801-1.533h63.646
			C456.779,143.846,458.067,144.357,459.09,145.379z"/>
		<path d="M512.617,233.49h-18.639c-1.556,0-2.863-0.525-3.927-1.575c-1.062-1.05-1.594-2.303-1.594-3.759
			c0-1.537,0.531-2.83,1.594-3.88c1.062-1.05,2.371-1.577,3.927-1.577h18.639c1.881,0,3.658-0.368,5.334-1.108
			c1.676-0.739,3.146-1.724,4.416-2.957c1.266-1.232,2.268-2.69,3.004-4.373c0.736-1.682,1.104-3.51,1.104-5.482
			c0-1.889-0.366-3.675-1.104-5.357c-0.736-1.683-1.738-3.162-3.004-4.434c-1.271-1.272-2.74-2.278-4.416-3.018
			c-1.676-0.74-3.453-1.109-5.334-1.109h-4.414c-1.555,0-2.863-0.525-3.924-1.575c-1.064-1.05-1.597-2.303-1.597-3.76
			c0-1.537,0.531-2.83,1.597-3.88c1.061-1.05,2.369-1.577,3.924-1.577c2.043,0,3.943-0.389,5.703-1.168
			c1.756-0.78,3.289-1.826,4.598-3.141c1.307-1.314,2.35-2.853,3.127-4.618c0.775-1.765,1.166-3.673,1.166-5.727
			c0-2.052-0.391-3.982-1.166-5.787c-0.776-1.805-1.82-3.365-3.127-4.679c-1.309-1.314-2.842-2.361-4.598-3.141
			c-1.76-0.78-3.66-1.171-5.703-1.171h-28.819v72.598c0,1.554-0.533,2.863-1.594,3.924c-1.063,1.063-2.372,1.594-3.924,1.594
			c-1.472,0-2.74-0.531-3.802-1.592c-1.063-1.062-1.595-2.367-1.595-3.918v-78.009c0-1.468,0.531-2.734,1.595-3.796
			c1.062-1.062,2.329-1.592,3.802-1.592h34.337c3.514,0,6.824,0.675,9.934,2.021c3.105,1.347,5.804,3.164,8.095,5.45
			c2.286,2.286,4.106,5.001,5.456,8.144c1.349,3.142,2.023,6.471,2.023,9.981c0,3.675-0.695,7.084-2.086,10.226
			c-1.391,3.143-3.311,5.898-5.764,8.266c3.434,2.124,6.213,5.021,8.34,8.694c2.125,3.675,3.188,7.716,3.188,12.125
			c0,3.43-0.653,6.655-1.961,9.674c-1.309,3.022-3.088,5.636-5.336,7.839c-2.248,2.204-4.862,3.959-7.848,5.266
			C519.259,232.839,516.051,233.49,512.617,233.49z"/>
		<path d="M627.523,230.362c-0.49,1.349-1.433,2.351-2.82,3.005c-1.394,0.653-2.781,0.735-4.17,0.245
			c-1.392-0.491-2.412-1.43-3.066-2.821l-9.688-20.847h-24.648c-1.555,0-2.842-0.51-3.863-1.533
			c-1.022-1.021-1.532-2.309-1.532-3.863c0-1.471,0.51-2.738,1.532-3.801c1.021-1.062,2.31-1.594,3.863-1.594h19.498l-17.168-36.79
			l-30.291,68.306c-0.49,1.063-1.186,1.861-2.084,2.392c-0.9,0.533-1.883,0.797-2.943,0.797c-0.735,0-1.473-0.123-2.206-0.368
			c-1.394-0.653-2.353-1.675-2.884-3.066c-0.53-1.389-0.469-2.778,0.185-4.169l35.194-79.098c0.408-0.981,1.062-1.757,1.964-2.33
			c0.897-0.571,1.879-0.858,2.942-0.858c1.062,0,2.043,0.267,2.943,0.797c0.897,0.533,1.551,1.288,1.961,2.269l37.035,79.22
			C627.932,227.646,628.014,229.014,627.523,230.362z"/>
		<path d="M691.168,233.612h-50.463c-1.537,0-2.83-0.531-3.881-1.594c-1.051-1.062-1.576-2.37-1.576-3.924v-78.852
			c0-1.552,0.525-2.861,1.576-3.924c1.051-1.062,2.344-1.594,3.881-1.594c1.535,0,2.828,0.533,3.879,1.594
			c1.051,1.063,1.578,2.372,1.578,3.924v73.333h45.006c1.551,0,2.861,0.552,3.924,1.656c1.063,1.104,1.594,2.391,1.594,3.863
			c0,1.554-0.53,2.863-1.594,3.924C694.029,233.082,692.719,233.612,691.168,233.612z"/>
		<path d="M758.982,233.612H708.52c-1.536,0-2.829-0.531-3.881-1.594c-1.051-1.062-1.575-2.37-1.575-3.924v-78.852
			c0-1.552,0.524-2.861,1.575-3.924c1.052-1.062,2.345-1.594,3.881-1.594c1.535,0,2.828,0.533,3.88,1.594
			c1.051,1.063,1.577,2.372,1.577,3.924v73.333h45.007c1.551,0,2.86,0.552,3.924,1.656c1.062,1.104,1.594,2.391,1.594,3.863
			c0,1.554-0.531,2.863-1.594,3.924C761.844,233.082,760.533,233.612,758.982,233.612z"/>
		<path d="M826.428,224.231c1.062,1.023,1.597,2.311,1.597,3.863c0,1.472-0.533,2.74-1.597,3.802
			c-1.062,1.063-2.328,1.594-3.801,1.594h-46.293c-1.488,0-2.771-0.531-3.846-1.594c-1.076-1.062-1.611-2.33-1.611-3.802v-78.975
			c0-1.472,0.535-2.738,1.611-3.802c1.073-1.062,2.356-1.594,3.846-1.594h46.293c1.473,0,2.738,0.533,3.801,1.594
			c1.062,1.063,1.597,2.33,1.597,3.802c0,1.554-0.533,2.841-1.597,3.863c-1.062,1.023-2.328,1.533-3.801,1.533h-40.836v28.696
			h16.064c1.471,0,2.737,0.533,3.801,1.594c1.062,1.063,1.596,2.33,1.596,3.802s-0.533,2.74-1.596,3.802
			c-1.062,1.063-2.33,1.594-3.801,1.594h-16.064v28.696h40.836C824.1,222.698,825.365,223.209,826.428,224.231z"/>
		<path d="M908.713,234.471c-2.371,0-4.475-0.328-6.313-0.981c-1.84-0.653-3.783-2.166-5.824-4.538
			c-0.902-0.981-2.107-2.594-3.619-4.844c-1.514-2.248-3.332-4.924-5.457-8.033c-1.146-1.634-2.188-3.106-3.127-4.415
			c-0.941-1.307-1.615-2.288-2.023-2.943l-0.489-0.735c-1.062-1.39-2.004-2.392-2.82-3.005c-0.818-0.613-2.168-0.919-4.047-0.919
			c-1.555,0-2.883-0.531-3.986-1.594c-1.104-1.062-1.654-2.37-1.654-3.924c0-1.552,0.552-2.882,1.654-3.985
			c1.104-1.104,2.432-1.656,3.986-1.656c2.615,0,5.09-0.51,7.42-1.533c2.33-1.021,4.354-2.392,6.07-4.108
			c1.716-1.716,3.084-3.719,4.106-6.009c1.021-2.288,1.533-4.741,1.533-7.358c0-2.616-0.512-5.089-1.533-7.419
			c-1.022-2.33-2.391-4.353-4.106-6.07c-1.718-1.717-3.74-3.085-6.07-4.108c-2.33-1.021-4.805-1.533-7.42-1.533H849.24v74.192
			c0,1.554-0.533,2.863-1.597,3.924c-1.062,1.061-2.37,1.594-3.924,1.594c-1.555,0-2.881-0.533-3.983-1.594
			c-1.105-1.062-1.656-2.37-1.656-3.924V149.12c0-1.552,0.551-2.861,1.656-3.924c1.104-1.062,2.43-1.594,3.983-1.594h31.271
			c4.17,0,8.094,0.797,11.772,2.391c3.679,1.594,6.886,3.762,9.625,6.5c2.738,2.74,4.906,5.948,6.5,9.627
			c1.595,3.679,2.392,7.603,2.392,11.772c0,5.641-1.41,10.772-4.23,15.39c-2.819,4.62-6.561,8.237-11.221,10.853
			c0.246,0.328,0.531,0.736,0.858,1.226l0.49,0.613c0.57,0.736,1.351,1.799,2.33,3.188c0.98,1.391,2.043,2.943,3.188,4.66
			c0.735,1.063,1.512,2.207,2.33,3.434c0.815,1.226,1.612,2.391,2.393,3.495c0.775,1.104,1.471,2.105,2.084,3.004
			c0.613,0.9,1.123,1.554,1.533,1.962c0.736,0.818,1.246,1.288,1.533,1.411c0.284,0.123,1,0.184,2.145,0.184
			c1.553,0,2.861,0.552,3.926,1.656c1.062,1.104,1.595,2.434,1.595,3.985c0,1.554-0.533,2.863-1.595,3.924
			C911.574,233.938,910.266,234.471,908.713,234.471z"/>
	</g>
	<g>
		<path d="M235.45,339.291c-6.214,0-12.06-1.184-17.536-3.557c-5.478-2.369-10.282-5.599-14.409-9.688
			c-4.129-4.086-7.379-8.869-9.75-14.348c-2.372-5.478-3.556-11.363-3.556-17.658c0-6.213,1.184-12.08,3.556-17.598
			c2.371-5.519,5.62-10.32,9.75-14.409c4.127-4.087,8.931-7.316,14.409-9.688c5.476-2.37,11.322-3.556,17.536-3.556
			c6.212,0,12.08,1.186,17.598,3.556c5.519,2.372,10.341,5.601,14.471,9.688c4.127,4.089,7.377,8.891,9.749,14.409
			c2.371,5.518,3.557,11.385,3.557,17.598c0,6.295-1.186,12.182-3.557,17.658c-2.372,5.479-5.622,10.262-9.749,14.348
			c-4.129,4.09-8.952,7.318-14.471,9.688C247.529,338.107,241.662,339.291,235.45,339.291z M235.511,259.581
			c-4.733,0-9.182,0.901-13.344,2.698c-4.162,1.8-7.814,4.273-10.957,7.419c-3.143,3.148-5.61,6.807-7.406,10.976
			c-1.795,4.17-2.692,8.627-2.692,13.368c0,4.742,0.897,9.197,2.692,13.367c1.795,4.168,4.263,7.828,7.406,10.975
			c3.143,3.148,6.794,5.621,10.957,7.42c4.162,1.8,8.611,2.697,13.344,2.697c4.733,0,9.18-0.897,13.342-2.697
			c4.162-1.799,7.814-4.271,10.957-7.42c3.143-3.146,5.61-6.807,7.406-10.975c1.795-4.17,2.694-8.625,2.694-13.367
			c0-4.739-0.898-9.196-2.694-13.368c-1.795-4.169-4.263-7.827-7.406-10.976c-3.143-3.146-6.794-5.619-10.957-7.419
			C244.691,260.482,240.244,259.581,235.511,259.581z M260.344,330.584c-1.717,0-3.108-0.652-4.169-1.961l-50.647-61.561
			c-0.901-1.145-1.288-2.473-1.165-3.986c0.123-1.512,0.755-2.717,1.901-3.617c1.144-0.981,2.472-1.389,3.985-1.227
			c1.512,0.165,2.759,0.818,3.74,1.962l50.524,61.562c0.981,1.146,1.389,2.474,1.226,3.984c-0.165,1.514-0.818,2.719-1.962,3.619
			C262.877,330.176,261.733,330.584,260.344,330.584z"/>
		<path d="M358.571,339.781c-2.372,0-4.476-0.326-6.315-0.98c-1.84-0.651-3.783-2.164-5.825-4.537
			c-0.9-0.979-2.106-2.594-3.618-4.844c-1.514-2.248-3.332-4.924-5.457-8.033c-1.146-1.633-2.188-3.104-3.127-4.414
			c-0.941-1.307-1.616-2.287-2.023-2.942l-0.491-0.736c-1.063-1.389-2.004-2.391-2.82-3.004c-0.818-0.613-2.167-0.92-4.047-0.92
			c-1.554,0-2.882-0.531-3.986-1.594s-1.655-2.371-1.655-3.925c0-1.553,0.552-2.883,1.655-3.985
			c1.104-1.104,2.432-1.654,3.986-1.654c2.615,0,5.089-0.51,7.419-1.532c2.33-1.021,4.354-2.394,6.07-4.109
			c1.716-1.717,3.085-3.719,4.108-6.008c1.021-2.289,1.533-4.74,1.533-7.359c0-2.615-0.512-5.089-1.533-7.419
			c-1.023-2.33-2.392-4.354-4.108-6.07c-1.716-1.716-3.74-3.085-6.07-4.108c-2.33-1.021-4.804-1.532-7.419-1.532h-25.753v74.191
			c0,1.556-0.533,2.863-1.594,3.925c-1.063,1.062-2.372,1.594-3.924,1.594c-1.554,0-2.882-0.531-3.985-1.594
			c-1.104-1.062-1.655-2.369-1.655-3.925v-79.833c0-1.552,0.552-2.861,1.655-3.924c1.104-1.062,2.432-1.594,3.985-1.594h31.271
			c4.169,0,8.094,0.797,11.772,2.391c3.679,1.594,6.887,3.762,9.626,6.5c2.738,2.74,4.905,5.948,6.5,9.626
			c1.594,3.68,2.392,7.604,2.392,11.772c0,5.642-1.411,10.772-4.231,15.39c-2.82,4.621-6.561,8.238-11.221,10.854
			c0.245,0.327,0.531,0.735,0.858,1.227l0.49,0.613c0.571,0.736,1.349,1.799,2.33,3.188c0.981,1.394,2.042,2.943,3.188,4.66
			c0.736,1.064,1.512,2.207,2.33,3.435c0.816,1.227,1.613,2.393,2.391,3.496c0.776,1.104,1.472,2.104,2.085,3.004
			s1.123,1.555,1.533,1.963c0.736,0.815,1.246,1.287,1.533,1.41c0.285,0.121,1,0.184,2.146,0.184c1.552,0,2.861,0.551,3.924,1.654
			c1.062,1.104,1.594,2.434,1.594,3.985c0,1.556-0.533,2.863-1.594,3.925C361.432,339.25,360.123,339.781,358.571,339.781z"/>
	</g>
	<g>
		<path d="M41.076,446.232c-1.537,0-2.83-0.531-3.88-1.595c-1.052-1.062-1.577-2.371-1.577-3.926V361.37
			c0-1.471,0.531-2.76,1.594-3.863c1.062-1.104,2.37-1.654,3.924-1.654h31.148c4.169,0,8.073,0.798,11.711,2.392
			c3.637,1.594,6.806,3.74,9.504,6.438c2.698,2.699,4.844,5.888,6.438,9.566c1.594,3.678,2.392,7.602,2.392,11.771
			s-0.797,8.074-2.392,11.712c-1.594,3.639-3.74,6.807-6.438,9.504c-2.698,2.698-5.867,4.846-9.504,6.438
			c-3.639,1.594-7.542,2.392-11.711,2.392c-1.554,0-2.882-0.531-3.986-1.595c-1.104-1.062-1.655-2.371-1.655-3.924
			s0.552-2.861,1.655-3.924c1.104-1.062,2.432-1.596,3.986-1.596c2.615,0,5.068-0.511,7.358-1.533
			c2.288-1.021,4.292-2.392,6.009-4.107c1.717-1.716,3.066-3.719,4.047-6.008c0.981-2.289,1.472-4.742,1.472-7.359
			c0-2.614-0.493-5.088-1.476-7.418c-0.985-2.33-2.337-4.354-4.058-6.069c-1.723-1.718-3.731-3.066-6.026-4.047
			c-2.295-0.982-4.756-1.474-7.377-1.474H46.533v73.701c0,1.555-0.527,2.863-1.577,3.926
			C43.904,445.701,42.61,446.232,41.076,446.232z"/>
		<path d="M179.71,446.477c-2.372,0-4.476-0.325-6.315-0.979c-1.84-0.652-3.783-2.164-5.825-4.537
			c-0.9-0.979-2.106-2.594-3.618-4.844c-1.514-2.248-3.332-4.924-5.457-8.033c-1.146-1.633-2.188-3.105-3.127-4.414
			c-0.941-1.307-1.616-2.287-2.023-2.943l-0.491-0.735c-1.063-1.39-2.004-2.392-2.82-3.004c-0.818-0.613-2.167-0.92-4.047-0.92
			c-1.554,0-2.882-0.531-3.986-1.595c-1.104-1.062-1.655-2.371-1.655-3.924s0.552-2.883,1.655-3.985
			c1.104-1.104,2.432-1.654,3.986-1.654c2.615,0,5.089-0.51,7.419-1.533c2.33-1.021,4.354-2.393,6.07-4.109
			c1.716-1.716,3.085-3.719,4.108-6.008c1.021-2.289,1.533-4.74,1.533-7.358c0-2.615-0.512-5.089-1.533-7.418
			c-1.023-2.33-2.392-4.354-4.108-6.07c-1.716-1.716-3.74-3.086-6.07-4.109c-2.33-1.02-4.804-1.53-7.419-1.53h-25.753v74.19
			c0,1.555-0.533,2.863-1.594,3.924c-1.063,1.062-2.372,1.595-3.924,1.595c-1.554,0-2.882-0.531-3.985-1.595
			c-1.104-1.061-1.655-2.369-1.655-3.924v-79.834c0-1.551,0.552-2.859,1.655-3.924c1.104-1.062,2.432-1.594,3.985-1.594h31.271
			c4.169,0,8.094,0.797,11.772,2.391c3.679,1.596,6.887,3.762,9.626,6.5c2.738,2.74,4.905,5.947,6.5,9.627
			c1.595,3.68,2.392,7.604,2.392,11.771c0,5.643-1.411,10.772-4.231,15.391c-2.82,4.621-6.561,8.238-11.221,10.854
			c0.245,0.328,0.531,0.736,0.858,1.228l0.49,0.613c0.571,0.735,1.349,1.799,2.33,3.188c0.981,1.394,2.042,2.943,3.188,4.66
			c0.736,1.063,1.512,2.207,2.33,3.434c0.816,1.228,1.613,2.394,2.391,3.496c0.776,1.104,1.472,2.105,2.085,3.004
			c0.613,0.9,1.123,1.556,1.533,1.963c0.736,0.816,1.246,1.287,1.533,1.41c0.285,0.121,1,0.185,2.146,0.185
			c1.552,0,2.861,0.551,3.924,1.653c1.062,1.105,1.594,2.435,1.594,3.986c0,1.555-0.533,2.863-1.594,3.924
			C182.571,445.945,181.262,446.477,179.71,446.477z"/>
		<path d="M235.628,445.986c-6.214,0-12.06-1.185-17.536-3.558c-5.478-2.369-10.282-5.598-14.409-9.688
			c-4.129-4.086-7.379-8.869-9.75-14.349c-2.372-5.477-3.556-11.362-3.556-17.657c0-6.213,1.184-12.08,3.556-17.599
			c2.371-5.52,5.62-10.319,9.75-14.41c4.127-4.086,8.931-7.313,14.409-9.688c5.476-2.371,11.322-3.557,17.536-3.557
			c6.212,0,12.08,1.186,17.598,3.557c5.519,2.373,10.341,5.602,14.471,9.688c4.127,4.091,7.377,8.892,9.749,14.41
			c2.371,5.519,3.557,11.386,3.557,17.599c0,6.295-1.186,12.182-3.557,17.657c-2.372,5.479-5.622,10.263-9.749,14.349
			c-4.129,4.09-8.952,7.317-14.471,9.688C247.708,444.803,241.841,445.986,235.628,445.986z M235.69,366.275
			c-4.733,0-9.182,0.901-13.344,2.698c-4.162,1.8-7.814,4.273-10.957,7.418c-3.143,3.148-5.61,6.808-7.406,10.978
			s-2.692,8.627-2.692,13.367c0,4.741,0.897,9.196,2.692,13.366c1.795,4.169,4.263,7.828,7.406,10.976s6.794,5.621,10.957,7.42
			c4.162,1.799,8.611,2.697,13.344,2.697s9.18-0.898,13.342-2.697c4.162-1.799,7.814-4.271,10.957-7.42
			c3.143-3.146,5.61-6.807,7.406-10.976c1.795-4.17,2.694-8.625,2.694-13.366c0-4.74-0.898-9.197-2.694-13.367
			s-4.263-7.828-7.406-10.978c-3.143-3.145-6.794-5.618-10.957-7.418C244.87,367.178,240.423,366.275,235.69,366.275z
			 M260.523,437.279c-1.717,0-3.108-0.652-4.169-1.961l-50.647-61.562c-0.901-1.145-1.288-2.473-1.165-3.985
			s0.755-2.718,1.901-3.617c1.144-0.982,2.472-1.392,3.985-1.228c1.512,0.164,2.759,0.818,3.74,1.961l50.524,61.562
			c0.981,1.145,1.389,2.473,1.226,3.983c-0.165,1.515-0.818,2.72-1.962,3.619C263.056,436.871,261.912,437.279,260.523,437.279z"/>
		<path d="M344.278,357.43c1.062,1.052,1.594,2.304,1.594,3.758c0,1.537-0.533,2.832-1.594,3.882
			c-1.063,1.051-2.372,1.575-3.924,1.575H299.15v29.062h16.31c1.472,0,2.738,0.527,3.802,1.578c1.062,1.049,1.594,2.303,1.594,3.758
			c0,1.537-0.533,2.832-1.594,3.881c-1.063,1.051-2.33,1.576-3.802,1.576h-16.31v34.336c0,1.555-0.518,2.863-1.55,3.924
			c-1.035,1.062-2.335,1.597-3.907,1.597c-1.572,0-2.874-0.531-3.907-1.595c-1.035-1.061-1.55-2.364-1.55-3.918V361.24
			c0-1.467,0.515-2.734,1.55-3.795c1.033-1.062,2.336-1.593,3.907-1.593h46.661C341.906,355.854,343.215,356.379,344.278,357.43z"/>
		<path d="M410.499,436.238c1.062,1.022,1.594,2.311,1.594,3.862c0,1.472-0.533,2.738-1.594,3.802
			c-1.063,1.062-2.33,1.594-3.802,1.594h-46.293c-1.489,0-2.771-0.531-3.846-1.594c-1.075-1.062-1.611-2.33-1.611-3.802v-78.977
			c0-1.471,0.537-2.738,1.611-3.801c1.075-1.062,2.357-1.594,3.846-1.594h46.293c1.472,0,2.737,0.53,3.802,1.594
			c1.062,1.062,1.594,2.33,1.594,3.801c0,1.555-0.533,2.842-1.594,3.863c-1.063,1.022-2.33,1.532-3.802,1.532h-40.836v28.695h16.065
			c1.472,0,2.738,0.533,3.802,1.596c1.062,1.062,1.594,2.33,1.594,3.802c0,1.471-0.533,2.739-1.594,3.801
			c-1.063,1.063-2.33,1.596-3.802,1.596h-16.065v28.695h40.836C408.169,434.705,409.436,435.217,410.499,436.238z"/>
		<path d="M456.06,446.846h-2.088c-3.852,0-7.661-0.571-11.428-1.717c-3.767-1.145-7.167-2.883-10.198-5.213
			s-5.487-5.291-7.371-8.891c-1.886-3.597-2.825-7.849-2.825-12.754c0-1.472,0.53-2.738,1.594-3.802
			c1.062-1.062,2.371-1.594,3.924-1.594c1.472,0,2.738,0.531,3.802,1.594c1.062,1.062,1.594,2.33,1.594,3.802
			c0,2.862,0.47,5.295,1.41,7.297c0.939,2.004,2.125,3.659,3.557,4.967c1.43,1.309,2.982,2.33,4.66,3.065
			c1.675,0.736,3.289,1.287,4.844,1.654c1.552,0.369,2.922,0.596,4.107,0.676c1.185,0.082,1.941,0.123,2.27,0.123h2.085
			c2.208,0,4.415-0.369,6.622-1.104c2.208-0.734,4.209-1.756,6.009-3.064c1.797-1.307,3.269-2.84,4.415-4.6
			c1.145-1.756,1.717-3.658,1.717-5.701c0-3.27-1.575-6.111-4.721-8.523c-3.148-2.409-8.483-4.803-16.003-7.174l-2.208-0.735
			c-3.435-1.228-6.929-2.533-10.485-3.925c-3.556-1.389-6.745-3.104-9.564-5.149c-2.821-2.043-5.132-4.478-6.93-7.297
			c-1.799-2.82-2.697-6.273-2.697-10.363c0-3.434,0.757-6.6,2.271-9.504c1.517-2.9,3.625-5.414,6.329-7.541
			c2.702-2.125,5.896-3.781,9.583-4.967c3.688-1.185,7.659-1.777,11.918-1.777c2.211,0,4.608,0.121,7.188,0.367
			s5.159,0.776,7.74,1.594c2.579,0.818,5.078,2.004,7.496,3.557c2.417,1.556,4.566,3.64,6.45,6.255
			c0.49,0.735,1.023,1.637,1.598,2.698c0.572,1.062,1.062,2.166,1.474,3.312c0.41,1.146,0.758,2.25,1.045,3.311
			c0.287,1.064,0.432,2.004,0.432,2.82c0,1.473-0.518,2.74-1.551,3.803c-1.035,1.062-2.336,1.594-3.907,1.594
			c-1.489,0-2.771-0.53-3.846-1.594c-1.075-1.062-1.611-2.33-1.611-3.803c-0.083-0.408-0.389-1.287-0.92-2.637
			c-0.533-1.349-1.084-2.433-1.655-3.25c-3.354-4.822-10.016-7.234-19.988-7.234c-2.372,0-4.682,0.287-6.93,0.857
			c-2.25,0.573-4.292,1.412-6.131,2.516s-3.311,2.451-4.415,4.047c-1.104,1.594-1.654,3.453-1.654,5.578
			c0,2.045,0.512,3.824,1.536,5.336c1.023,1.514,2.499,2.902,4.425,4.168c1.926,1.271,4.282,2.434,7.068,3.496
			s5.899,2.207,9.341,3.434l2.091,0.736c2.457,0.818,5.304,1.82,8.542,3.004c3.235,1.187,6.31,2.779,9.218,4.783
			s5.367,4.475,7.376,7.418c2.008,2.943,3.012,6.543,3.012,10.793c0,3.678-0.881,7.072-2.643,10.178
			c-1.762,3.107-4.056,5.785-6.881,8.033c-2.826,2.248-6.001,3.984-9.523,5.211C463.104,446.232,459.582,446.846,456.06,446.846z"/>
		<path d="M526.449,446.846h-2.088c-3.853,0-7.662-0.571-11.429-1.717c-3.768-1.145-7.166-2.883-10.196-5.213
			c-3.031-2.33-5.488-5.291-7.373-8.891c-1.885-3.597-2.826-7.849-2.826-12.754c0-1.472,0.531-2.738,1.596-3.802
			c1.062-1.062,2.369-1.594,3.924-1.594c1.472,0,2.738,0.531,3.802,1.594c1.062,1.063,1.594,2.33,1.594,3.802
			c0,2.862,0.471,5.295,1.412,7.297c0.938,2.004,2.125,3.659,3.555,4.967c1.43,1.309,2.984,2.33,4.66,3.065
			c1.676,0.736,3.291,1.287,4.844,1.654c1.553,0.369,2.922,0.596,4.109,0.676c1.184,0.082,1.94,0.123,2.268,0.123h2.086
			c2.207,0,4.414-0.369,6.621-1.104c2.207-0.734,4.211-1.756,6.01-3.064c1.798-1.307,3.271-2.84,4.414-4.6
			c1.146-1.756,1.718-3.658,1.718-5.701c0-3.27-1.574-6.111-4.722-8.523c-3.147-2.409-8.481-4.803-16.004-7.174l-2.207-0.735
			c-3.434-1.228-6.93-2.533-10.483-3.925c-3.558-1.389-6.746-3.104-9.566-5.149c-2.82-2.043-5.131-4.478-6.928-7.297
			c-1.8-2.82-2.699-6.273-2.699-10.363c0-3.434,0.758-6.6,2.272-9.504c1.517-2.9,3.625-5.414,6.328-7.541
			c2.703-2.125,5.896-3.781,9.584-4.967c3.687-1.185,7.658-1.777,11.918-1.777c2.211,0,4.607,0.121,7.188,0.367
			c2.578,0.246,5.16,0.776,7.74,1.594c2.58,0.818,5.078,2.004,7.496,3.557c2.416,1.556,4.565,3.64,6.448,6.255
			c0.49,0.735,1.023,1.637,1.599,2.698c0.574,1.062,1.063,2.166,1.475,3.312c0.41,1.146,0.756,2.25,1.045,3.311
			c0.287,1.064,0.43,2.004,0.43,2.82c0,1.473-0.518,2.74-1.549,3.803c-1.035,1.062-2.336,1.594-3.908,1.594
			c-1.487,0-2.77-0.53-3.846-1.594c-1.074-1.062-1.611-2.33-1.611-3.803c-0.082-0.408-0.389-1.287-0.92-2.637
			c-0.53-1.349-1.084-2.433-1.653-3.25c-3.354-4.822-10.017-7.234-19.99-7.234c-2.371,0-4.68,0.287-6.928,0.857
			c-2.25,0.573-4.293,1.412-6.134,2.516c-1.838,1.104-3.311,2.451-4.414,4.047c-1.104,1.594-1.655,3.453-1.655,5.578
			c0,2.045,0.512,3.824,1.537,5.336c1.022,1.514,2.5,2.902,4.426,4.168c1.924,1.271,4.281,2.434,7.067,3.496
			c2.785,1.062,5.898,2.207,9.341,3.434l2.092,0.736c2.455,0.818,5.303,1.82,8.541,3.004c3.236,1.187,6.311,2.779,9.219,4.783
			s5.367,4.475,7.375,7.418s3.012,6.543,3.012,10.793c0,3.678-0.881,7.072-2.643,10.178c-1.76,3.107-4.053,5.785-6.881,8.033
			c-2.826,2.248-6,3.984-9.521,5.211C533.492,446.232,529.971,446.846,526.449,446.846z"/>
		<path d="M608.545,445.986c-6.213,0-12.059-1.185-17.535-3.558c-5.479-2.369-10.283-5.598-14.41-9.688
			c-4.129-4.086-7.379-8.869-9.748-14.349c-2.372-5.477-3.557-11.362-3.557-17.657c0-6.213,1.185-12.08,3.557-17.599
			c2.369-5.52,5.619-10.319,9.748-14.41c4.127-4.086,8.933-7.313,14.41-9.688c5.478-2.371,11.322-3.557,17.535-3.557
			s12.08,1.186,17.598,3.557c5.521,2.373,10.343,5.602,14.472,9.688c4.127,4.091,7.377,8.892,9.75,14.41
			c2.369,5.519,3.557,11.386,3.557,17.599c0,6.295-1.188,12.182-3.557,17.657c-2.373,5.479-5.623,10.263-9.75,14.349
			c-4.129,4.09-8.951,7.317-14.472,9.688C620.625,444.803,614.758,445.986,608.545,445.986z M608.607,366.275
			c-4.732,0-9.183,0.901-13.345,2.698c-4.162,1.8-7.813,4.273-10.957,7.418c-3.143,3.148-5.61,6.808-7.405,10.978
			s-2.691,8.627-2.691,13.367c0,4.741,0.896,9.196,2.691,13.366c1.795,4.169,4.264,7.828,7.405,10.976
			c3.144,3.147,6.795,5.621,10.957,7.42s8.611,2.697,13.345,2.697c4.732,0,9.18-0.898,13.342-2.697s7.813-4.271,10.955-7.42
			c3.143-3.146,5.61-6.807,7.405-10.976c1.796-4.17,2.695-8.625,2.695-13.366c0-4.74-0.899-9.197-2.695-13.367
			c-1.795-4.17-4.264-7.828-7.405-10.978c-3.142-3.145-6.793-5.618-10.955-7.418C617.787,367.178,613.34,366.275,608.607,366.275z
			 M633.439,437.279c-1.718,0-3.107-0.652-4.17-1.961l-50.646-61.562c-0.9-1.145-1.287-2.473-1.164-3.985
			c0.121-1.513,0.754-2.718,1.9-3.617c1.145-0.982,2.471-1.392,3.983-1.228c1.514,0.164,2.761,0.818,3.742,1.961l50.523,61.562
			c0.979,1.145,1.389,2.473,1.227,3.983c-0.166,1.515-0.817,2.72-1.963,3.619C635.973,436.871,634.828,437.279,633.439,437.279z"/>
		<path d="M731.666,446.477c-2.371,0-4.475-0.325-6.314-0.979c-1.84-0.652-3.782-2.164-5.823-4.537
			c-0.902-0.979-2.107-2.594-3.619-4.844c-1.515-2.248-3.332-4.924-5.457-8.033c-1.146-1.633-2.188-3.105-3.127-4.414
			c-0.941-1.307-1.615-2.287-2.023-2.943l-0.489-0.735c-1.062-1.39-2.005-2.392-2.82-3.004c-0.818-0.613-2.168-0.92-4.047-0.92
			c-1.556,0-2.883-0.531-3.986-1.595c-1.104-1.062-1.654-2.371-1.654-3.924s0.552-2.883,1.654-3.985
			c1.103-1.104,2.432-1.654,3.986-1.654c2.614,0,5.09-0.51,7.42-1.533c2.33-1.021,4.354-2.393,6.069-4.109
			c1.717-1.716,3.084-3.719,4.107-6.008c1.021-2.289,1.533-4.74,1.533-7.358c0-2.615-0.513-5.089-1.533-7.418
			c-1.023-2.33-2.391-4.354-4.107-6.07c-1.716-1.716-3.739-3.086-6.069-4.109c-2.33-1.02-4.806-1.53-7.42-1.53h-25.752v74.19
			c0,1.555-0.533,2.863-1.597,3.924c-1.062,1.062-2.371,1.595-3.924,1.595c-1.555,0-2.881-0.531-3.983-1.595
			c-1.105-1.061-1.656-2.369-1.656-3.924v-79.834c0-1.551,0.551-2.859,1.656-3.924c1.104-1.062,2.43-1.594,3.983-1.594h31.271
			c4.17,0,8.094,0.797,11.772,2.391c3.678,1.596,6.885,3.762,9.625,6.5c2.738,2.74,4.906,5.947,6.5,9.627s2.392,7.604,2.392,11.771
			c0,5.643-1.41,10.772-4.23,15.391c-2.82,4.621-6.561,8.238-11.221,10.854c0.246,0.328,0.53,0.736,0.858,1.228l0.49,0.613
			c0.57,0.735,1.35,1.799,2.33,3.188c0.98,1.394,2.043,2.943,3.188,4.66c0.735,1.063,1.512,2.207,2.329,3.434
			c0.816,1.228,1.613,2.394,2.394,3.496c0.775,1.104,1.471,2.105,2.084,3.004c0.613,0.9,1.123,1.556,1.533,1.963
			c0.735,0.816,1.246,1.287,1.533,1.41c0.284,0.121,1,0.185,2.145,0.185c1.553,0,2.861,0.551,3.926,1.653
			c1.062,1.105,1.595,2.435,1.595,3.986c0,1.555-0.533,2.863-1.595,3.924C734.527,445.945,733.219,446.477,731.666,446.477z"/>
	</g>
</g>
</svg>
